<svg width="22" height="32" viewBox="0 0 22 32" fill="none" xmlns="http://www.w3.org/2000/svg">
<path d="M1.51099 7.46546C1.51099 7.46546 0.783908 7.9845 0.5722 8.21544C0.514509 8.27838 0.409617 8.3518 0.330948 8.48292L0.17361 8.72942C0.146425 8.77129 0.0804312 8.93439 0.0759733 8.98404L0.0287716 9.19645L0.000887187 9.96959C0.000275315 9.97693 -7.41122e-05 9.98419 1.3298e-05 9.99153L0.0418831 16.2321V24.6822C0.0418831 24.699 0.0424947 24.7158 0.0438059 24.7326L0.0671448 25.0365C0.0781585 25.1796 0.123 25.3745 0.1841 25.5043L0.378587 25.8792C0.406733 25.9391 0.553582 26.1688 0.603056 26.2126C0.726916 26.3225 1.14142 26.713 1.51037 26.8472C1.9719 27.015 1.84603 27.0989 2.93691 27.0989C4.02779 27.0989 9.75814 27.1406 9.75814 27.1406V26.1101L3.18987 26.0508C3.12921 26.0503 3.06968 26.0393 3.01296 26.0178C2.86051 25.9601 2.53281 25.8187 2.13973 25.5465C1.70032 25.2423 1.31169 24.993 1.20155 24.2377L1.16947 20.8552L1.35496 8.21509C1.35583 8.15618 1.36457 8.09753 1.38092 8.04089L1.51099 7.46546Z" fill="#1B1B3D"/>
<path d="M10.259 27.1855L11.7905 27.1751L11.7642 26.1786L10.3377 26.1996L10.259 27.1855Z" fill="#1B1B3D"/>
<path d="M13.3167 26.9082L13.3376 26.2998C13.3376 26.2998 13.7797 26.1428 13.9303 26.1005C14.6593 25.896 14.8143 25.77 15.0526 25.6862C15.3358 25.5866 16.7523 24.7514 16.9879 24.6425C17.4756 24.417 16.6208 25.0936 16.6208 25.0936C16.6208 25.0936 15.4768 25.8906 15.3725 25.9642C15.1942 26.09 14.89 26.3208 14.3656 26.5306C13.8411 26.7404 13.7992 26.7823 13.3167 26.9082Z" fill="#1B1B3D"/>
<path d="M9.91809 31.035L10.0649 30.8042L10.044 31.7273L9.91809 32V31.035Z" fill="#1B1B3D"/>
<path d="M10.0597 29.6934L10.2327 28.7808L10.3376 27.6322L10.4897 25.9487L10.7048 22.8019L10.8411 21.1394L10.946 19.5922L9.89709 19.5503L9.93381 24.7477L10.0597 29.6934Z" fill="#1B1B3D"/>
<path d="M10.1069 17.5039H10.988L11.1978 15.7207L11.6593 10.5181L11.9845 6.35649L12.0317 5.82153L10.1279 5.81891L10.0649 12.574L10.1069 17.5039Z" fill="#1B1B3D"/>
<path d="M15.8131 3.64245L17.7641 4.48159V4.69137L17.0928 4.85919L16.5473 5.00605L16.9879 5.38366L16.5054 5.65638C16.5054 5.65638 16.1068 5.95008 14.953 5.61442C13.7992 5.27877 13.5201 5.27037 13.0282 5.24467C12.8101 5.23331 12.1419 5.18698 12.1419 5.18698L11.5597 5.15814C11.4889 5.15814 11.2241 5.15289 11.2083 5.15289L9.18914 5.16076C9.13486 5.16024 8.43418 5.23165 8.38147 5.24467C8.07029 5.32125 7.60283 5.33182 6.88676 5.9763C6.04762 6.73152 6.02892 7.03527 5.89028 7.38185C5.86931 7.4343 5.78539 7.76996 5.81686 8.21051C5.82245 8.28839 5.83259 8.46224 5.90077 8.66154C6.00261 8.95917 6.31291 9.37437 6.54062 9.64228C6.89725 10.0619 7.4058 10.6713 8.53357 10.8381C9.57987 10.9928 10.0545 11.0741 10.0545 11.0741L10.0335 12.5399C9.83974 12.6221 8.97167 12.5579 8.0668 12.4141C7.09331 12.2593 5.69886 11.5251 5.69886 11.5251C4.83323 10.9532 4.62895 10.6047 4.30641 10.172C4.13168 9.93756 3.96009 9.55339 3.84226 9.19649C3.71604 8.81416 3.69069 8.19328 3.68755 8.01121C3.68169 7.67232 3.73894 7.42722 3.79768 7.0934C4.01271 5.87141 4.84136 5.11094 5.10097 4.85395C5.76712 4.19444 6.24954 4.07574 6.45408 3.98072C6.77951 3.8295 7.21586 3.76814 7.53185 3.74471C7.80876 3.72417 7.98288 3.72374 8.36574 3.70538C8.68007 3.69026 15.8131 3.64245 15.8131 3.64245Z" fill="#1B1B3D"/>
<path d="M17.0734 5.01729L17.4673 5.17628L18.6421 5.19141L18.7318 5.00522L17.0734 5.01729Z" fill="#1B1B3D"/>
<path d="M11.7983 11.3502L11.7944 12.723C11.7944 12.723 12.2774 12.8804 12.4512 12.9472C12.724 13.0521 13.0793 13.286 13.2222 13.3511C13.5548 13.5024 13.9355 13.8546 14.1715 14.2689C14.5015 14.8481 14.4676 15.0841 14.4809 15.407C14.5001 15.8721 14.0782 16.6431 13.7047 16.9279C12.8656 17.5677 11.0719 17.6149 11.0719 17.6149L8.81148 17.7408L8.19262 17.8562C8.19262 17.8562 7.82943 17.9198 7.36397 18.1079C7.03828 18.2396 5.69225 18.9995 5.27268 20.2792C5.10835 20.7805 5.05923 21.1726 5.06814 21.5615C5.08204 22.1653 5.31988 22.6275 5.31988 22.6275C5.31988 22.6275 5.72765 23.5558 6.7556 24.1222C7.15052 24.3398 7.64019 24.5179 8.01824 24.6257C8.62434 24.7985 8.85554 24.7994 9.13927 24.8027C9.27694 24.8043 9.68996 24.8105 9.68996 24.8105L9.66111 23.3211C9.66111 23.3211 9.08228 23.2886 8.48238 22.9815C8.19568 22.8346 7.90495 22.6749 7.64718 22.4715C7.2742 22.177 7.16791 21.5914 7.23941 21.1406C7.32079 20.6278 7.57375 20.3382 7.57375 20.3382C7.57375 20.3382 8.19917 19.5463 9.20614 19.3155C9.70962 19.2001 10.4409 19.3089 11.0824 19.3089C11.6134 19.3089 12.0643 19.2527 12.3831 19.1936C13.1173 19.0572 13.7481 18.8592 14.4075 18.4908C14.7641 18.2915 15.2676 17.8824 15.4249 17.7146C15.6412 17.4838 15.967 17.0988 16.1907 16.7496C16.3021 16.5756 16.4552 16.3615 16.563 15.8842C16.6364 15.5591 16.5961 14.9046 16.5473 14.5521C16.5264 14.4008 16.4483 14.2041 16.4004 14.0591C16.2274 13.5346 15.8693 13.1931 15.6819 12.9892C15.3253 12.6011 14.8074 12.3061 14.8074 12.3061L14.3826 12.0347L13.9932 11.8301C13.8808 11.7793 13.5919 11.6689 13.4661 11.6177C13.5249 11.6242 13.2331 11.5345 12.9705 11.4604C12.9468 11.4537 12.4263 11.3843 12.21 11.3529L11.7983 11.3502Z" fill="#1B1B3D"/>
<path d="M10.4976 24.9307L10.4583 26.2445L11.7642 26.2891C11.7642 26.2891 11.515 25.5706 10.4976 24.9307Z" fill="#6CC62E"/>
<path d="M9.61395 24.9303L9.64542 26.3254L5.43924 26.3464L5.0826 26.3359C5.0826 26.3359 3.6128 26.3922 3.06343 26.2913C2.39955 26.1693 1.4848 25.7249 1.1911 24.2144C0.897405 22.704 1.25509 8.35585 1.25509 8.35585C1.25509 8.35585 1.25404 7.81977 1.60018 7.50509C1.94633 7.19041 2.42883 6.90983 2.42883 6.90983C2.42883 6.90983 2.73302 6.67906 3.00574 6.62662C3.27846 6.57417 3.57216 6.60564 3.57216 6.60564L3.48037 6.73413L3.40433 6.97276C3.40433 6.97276 3.3309 7.26908 3.30993 7.48673C3.26989 7.90176 3.23912 8.74361 3.30993 9.15452C3.46499 10.0538 3.97075 11.2209 5.63853 11.9656C7.30632 12.7104 7.69442 12.7313 7.69442 12.7313C7.69442 12.7313 8.57718 12.8767 9.10522 12.8625C9.3963 12.8546 9.77391 12.8231 9.77391 12.8231L9.76604 17.559C9.76604 17.559 8.72604 17.546 8.38671 17.6088C7.75132 17.7266 6.91822 18.1123 6.06859 18.7522C5.21896 19.392 5.16713 19.5798 4.96722 19.9427C4.78253 20.2781 4.68401 20.4619 4.72597 21.5738C4.76793 22.6856 5.16049 23.2634 5.58609 23.6192C6.05399 24.0102 7.33517 24.6707 7.75736 24.731C8.98984 24.9071 8.89282 24.8674 8.89282 24.8674L9.61395 24.9303Z" fill="#6CC62E"/>
<path d="M9.57197 19.5915L8.84821 19.6544C8.84821 19.6544 8.24473 19.7541 8.00907 19.9167C7.70489 20.1265 7.52657 20.3782 7.39021 20.5985C7.25385 20.8187 7.0126 21.2488 7.18042 21.8677C7.20909 21.9733 7.33776 22.2977 7.5895 22.5075C7.74343 22.6357 8.17734 22.8731 8.38668 22.969C8.55102 23.0444 8.91447 23.1717 9.06848 23.2103C9.32023 23.2732 9.55099 23.3047 9.55099 23.3047L9.57197 19.5915Z" fill="#6CC62E"/>
<path d="M11.9005 7.07671C11.9005 7.07671 13.46 7.37801 13.9669 7.51987C14.5117 7.67232 15.7868 8.19468 16.0438 8.3459C16.3112 8.50324 17.7509 9.5102 17.9843 9.7095C18.3062 9.9844 18.6406 10.3498 18.8287 10.588C19.1471 10.991 19.5896 11.6122 19.9458 12.3213C20.229 12.8851 20.388 13.1605 20.5043 13.4515C20.583 13.6482 20.8977 14.7968 20.9842 15.1639C21.2236 16.1798 21.1835 17.1789 21.1311 17.8491C21.0845 18.4446 20.8478 19.3911 20.5961 20.1777C20.3444 20.9644 19.8828 21.8455 19.8828 21.8455C19.8828 21.8455 19.5472 22.4644 19.0122 23.1252C18.4773 23.786 17.5332 24.6566 17.5332 24.6566L16.9354 25.1077C16.9354 25.1077 15.7606 25.8 15.1417 26.0727C14.5228 26.3454 14.2006 26.3985 13.8725 26.4319C13.6972 26.4498 13.2956 26.5762 13.2956 26.5762C13.2956 26.5762 13.1855 25.9573 12.8498 25.5272C12.5142 25.0972 12.1287 24.6199 11.6462 24.3787C11.1637 24.1374 11.0417 24.1038 10.8097 24.0378C10.7341 24.0163 10.5448 23.946 10.5448 23.946L10.925 19.5589C10.925 19.5589 12.0264 19.6848 12.5404 19.6008C13.0325 19.5205 13.904 19.2232 14.3367 18.9898C14.8444 18.716 15.4013 18.253 15.7684 17.7075C16.1356 17.1621 16.3375 16.4016 16.3375 16.4016C16.3375 16.4016 16.4355 16.0974 16.4529 15.9925C16.5148 15.6193 16.6836 15.2373 16.4529 14.4506C16.2473 13.7497 16.0053 13.5155 15.7606 13.2758C15.2571 12.7828 15.0728 12.5774 14.0823 12.1745C13.4634 11.9227 12.9628 11.8009 12.5823 11.7234C12.3345 11.673 11.599 11.5477 11.599 11.5477L11.9005 7.07671Z" fill="#6CC62E"/>
<path d="M6.13934 6.78937L10.0177 6.86018L10.0544 11.0742C10.0544 11.0742 9.12501 11.035 8.29487 10.833C7.80171 10.713 7.37244 10.4508 7.11484 10.3374C6.45402 10.0463 6.14729 9.63213 5.9584 9.29105C5.8661 9.12445 5.78043 8.90383 5.746 8.55943C5.72239 8.32342 5.75386 7.77274 5.8168 7.4974C5.8529 7.33927 5.94267 7.04898 6.13934 6.78937Z" fill="#6CC62E"/>
<path d="M11.5492 12.9649L11.0378 17.4805C11.0378 17.4805 11.6741 17.4566 11.8691 17.4306C12.2782 17.3762 12.981 17.1579 13.3507 16.8668C13.7205 16.5758 13.9722 16.1274 13.9722 16.1274C13.9722 16.1274 14.2082 15.6265 14.1767 15.4429C14.1589 15.3389 14.2457 14.97 13.883 14.4622C13.7782 14.3153 13.4236 13.9305 13.2327 13.8119C13.0224 13.6811 12.8031 13.5217 12.4146 13.3189C12.0732 13.1407 11.7124 12.9944 11.5492 12.9649Z" fill="#6CC62E"/>
<path d="M15.9074 4.27832C15.9074 4.35655 15.797 4.41992 15.6609 4.41992C15.5248 4.41992 15.4144 4.35655 15.4144 4.27832C15.4144 4.20008 15.5248 4.13671 15.6609 4.13671C15.797 4.13671 15.9074 4.20008 15.9074 4.27832Z" fill="white"/>
<path d="M13.1881 1.42718C13.1881 2.2157 12.34 2.81009 11.2961 2.85502C10.1923 2.90249 9.37505 2.23913 9.40407 1.42718C9.43222 0.639087 10.2512 -0.000669241 11.2961 -0.000669241C12.341 -0.000669241 13.1881 0.638562 13.1881 1.42718Z" fill="#1B1B3D"/>
<path d="M12.2441 3.20898H10.3481L10.3796 2.67403L10.3481 2.23349H12.2441L12.189 2.66617L12.2441 3.20898Z" fill="#1B1B3D"/>
<path d="M10.7467 23.5186L10.7415 24.8875C10.7415 24.8875 11.081 25.0292 11.1873 25.0972C11.3154 25.1792 11.5394 25.3864 11.6331 25.5063C11.7283 25.6284 11.8842 25.9028 11.9268 26.0518C11.9687 26.1986 11.9871 26.523 11.9949 26.6811C12.0024 26.8304 12.005 27.1303 11.9897 27.279C11.9712 27.4586 11.8946 27.8107 11.8219 27.9818C11.7671 28.1107 11.6129 28.3481 11.5282 28.459C11.3918 28.6374 11.1191 28.9363 11.1191 28.9363L10.7362 29.2877C10.5312 29.4438 10.3028 29.5985 10.2852 29.6129L9.92331 29.8646L9.49849 30.1006C9.33067 30.2107 8.97438 30.3381 8.9111 30.3576L8.64362 30.4205C8.5813 30.4371 8.38314 30.477 8.23979 30.494L7.71008 30.6041L7.73106 30.709L8.6174 30.6828C8.6174 30.6828 9.32542 30.5962 9.57716 30.5543C9.82891 30.5123 10.668 30.2055 10.668 30.2055C10.668 30.2055 11.4311 29.9302 11.7878 29.5945C11.9498 29.442 12.2929 29.1934 12.4565 29.0045C12.6529 28.7777 12.8106 28.5609 12.8446 28.4905C12.9993 28.1706 13.1645 27.5255 13.2064 27.2266C13.3508 26.1983 13.1225 25.7161 13.1225 25.7161C13.1225 25.7161 13.0176 25.1759 12.4617 24.5885C12.1616 24.2714 11.9645 24.0829 11.7747 23.9434C11.7134 23.8984 11.5177 23.7809 11.5177 23.7809C11.4075 23.7074 11.2292 23.6392 11.0614 23.5658L10.7467 23.5186Z" fill="#1B1B3D"/>
</svg>
