<svg width="43" height="40" viewBox="0 0 43 40" fill="none" xmlns="http://www.w3.org/2000/svg">
<mask id="mask0_527_4611" style="mask-type:luminance" maskUnits="userSpaceOnUse" x="0" y="0" width="43" height="40">
<path d="M0 0H42.3992V40H0V0Z" fill="white"/>
</mask>
<g mask="url(#mask0_527_4611)">
<path d="M25.5597 3.58739L42.0235 33.2782C42.0235 33.2782 44.1226 38.268 38.1962 40H4.23044C-1.69679 38.268 0.402388 33.2782 0.402388 33.2782L16.8661 3.58739C16.8661 3.58739 18.2341 0.287449 21.2129 0.0812031C21.2129 0.0812031 23.9222 0.000735886 25.5597 3.58739Z" fill="#FDD91D"/>
</g>
<path d="M34.0127 35.7843H8.41317C3.94685 34.4789 5.52885 30.7188 5.52885 30.7188L17.9372 8.34111C17.9372 8.34111 18.9677 5.85444 21.2129 5.69897C21.2129 5.69897 21.2168 5.69897 21.2239 5.69897C21.3871 5.69897 23.3082 5.75444 24.4894 8.34111L36.897 30.7188C36.897 30.7188 38.479 34.4789 34.0127 35.7843ZM15.9701 34.4844H32.9064C36.9868 33.2922 35.5415 29.8563 35.5415 29.8563L24.2058 9.41296C23.1269 7.04973 21.3731 6.99895 21.2239 6.99895C21.2168 6.99895 21.2129 6.99895 21.2129 6.99895C19.1622 7.14035 18.22 9.41296 18.22 9.41296L6.88429 29.8563C6.88429 29.8563 6.63586 30.4461 6.63586 31.2227C6.63586 32.3195 7.13116 33.7859 9.5194 34.4844H15.9701Z" fill="#F78F13"/>
<path d="M24.2058 9.41314L35.5415 29.8565C35.5415 29.8565 36.9868 33.2924 32.9064 34.4845H9.51935C5.43896 33.2924 6.88425 29.8565 6.88425 29.8565L18.22 9.41314C18.22 9.41314 19.1621 7.14053 21.2129 6.99913C21.2129 6.99913 23.0785 6.94366 24.2058 9.41314Z" fill="#FBBF20"/>
<path d="M15.9699 34.4844H9.51928C7.13105 33.786 6.63574 32.3196 6.63574 31.2228C6.63574 30.4462 6.88417 29.8564 6.88417 29.8564L18.2199 9.41304C18.2199 9.41304 19.1621 7.14043 21.2128 6.99902C21.2128 6.99902 21.2159 6.99902 21.223 6.99902C21.3026 6.99902 21.8526 7.01309 22.5112 7.3998C20.7292 7.88885 19.3769 9.47398 18.3918 11.0208C16.9863 13.2278 16.066 15.7582 15.3285 18.2574C13.8262 23.3464 12.7434 29.8978 15.9699 34.4844Z" fill="#F9AB18"/>
<path d="M31.1248 32.7906H25.4421C25.1937 32.6437 24.9554 32.4765 24.7336 32.2804C23.8601 31.5101 23.2883 30.3992 22.925 29.3102C22.693 28.6149 22.5625 27.8704 22.5234 27.1102C22.9844 26.7306 23.2773 26.1556 23.2773 25.511V22.7095C23.4172 22.3666 23.5742 22.0361 23.7476 21.7221C24.2531 20.8057 24.9796 20.0729 25.7695 19.4026C26.0906 19.1299 26.5101 18.7791 26.964 18.5237L33.0256 29.4547C33.0256 29.4547 34.067 31.9312 31.1248 32.7906Z" fill="#FBCA48"/>
<path d="M21.2128 27.5806C20.0729 27.5806 19.1479 26.654 19.1479 25.5111V13.5668C19.1479 12.4239 20.0729 11.4973 21.2128 11.4973C22.3534 11.4973 23.2776 12.4239 23.2776 13.5668V22.7096C22.7244 24.0689 22.4479 25.6197 22.5237 27.1103C22.1674 27.404 21.7104 27.5806 21.2128 27.5806Z" fill="#342606"/>
<path d="M22.5236 27.1104C22.4478 25.6198 22.7243 24.0691 23.2774 22.7097V25.5112C23.2774 26.1557 22.9845 26.7307 22.5236 27.1104Z" fill="#35280E"/>
<path d="M23.5403 30.4589C23.5403 31.7472 22.499 32.7909 21.213 32.7909C19.9279 32.7909 18.8857 31.7472 18.8857 30.4589C18.8857 29.1715 19.9279 28.127 21.213 28.127C22.499 28.127 23.5403 29.1715 23.5403 30.4589Z" fill="#393536"/>
<path d="M31.9167 33.1321L31.6222 32.4501C32.1831 32.2071 32.5612 31.847 32.7456 31.379C33.0753 30.5392 32.7128 29.6017 32.669 29.4939L22.9497 10.9513L23.6059 10.606L33.3433 29.1868C33.3667 29.24 33.8956 30.4806 33.4347 31.6516C33.1753 32.3094 32.6651 32.8079 31.9167 33.1321Z" fill="white"/>
</svg>
