<svg width="262" height="132" viewBox="0 0 262 132" fill="none" xmlns="http://www.w3.org/2000/svg">
<path d="M0.834201 131.424C0.372017 131.424 -0.0029354 131.05 1.73205e-05 130.588C0.126564 110.78 4.74331 91.2553 13.5074 73.4836C22.3948 55.4616 35.309 39.7256 51.2508 27.4931C67.1927 15.2604 85.7348 6.85908 105.443 2.93888C124.877 -0.926868 144.932 -0.332874 164.098 4.67146C164.544 4.78822 164.809 5.24742 164.69 5.69386L161.733 16.7311C161.613 17.1776 161.154 17.4421 160.706 17.3257C143.483 12.8413 125.462 12.3138 107.999 15.7874C90.2614 19.3156 73.5734 26.8769 59.2258 37.8862C44.8781 48.8956 33.2554 63.058 25.2566 79.2777C17.3814 95.2473 13.227 112.79 13.1006 130.588C13.0973 131.05 12.723 131.424 12.2608 131.424H0.834201Z" fill="#5321CC"/>
<path d="M261.167 131.424C261.629 131.424 262.004 131.05 262.001 130.588C261.874 110.78 257.258 91.2553 248.494 73.4836C239.606 55.4616 226.691 39.7256 210.75 27.4931C194.808 15.2604 176.266 6.85908 156.558 2.93888C137.124 -0.926868 117.068 -0.332874 97.9036 4.67146C97.4564 4.78822 97.1913 5.24742 97.311 5.69386L100.268 16.7311C100.388 17.1776 100.847 17.4421 101.294 17.3257C118.518 12.8413 136.539 12.3138 154.002 15.7874C171.739 19.3156 188.427 26.8769 202.775 37.8862C217.123 48.8956 228.746 63.058 236.744 79.2777C244.619 95.2473 248.774 112.79 248.901 130.588C248.904 131.05 249.278 131.424 249.74 131.424H261.167Z" fill="#4016A6"/>
</svg>
