<svg width="66" height="56" viewBox="0 0 66 56" fill="none" xmlns="http://www.w3.org/2000/svg">
<path d="M6.05554 56C0.978287 50.76 -1.15301 42.8314 0.610186 35.7475C2.37223 28.6636 7.97105 22.6597 14.913 20.4061C17.9629 19.4161 21.3392 19.0537 23.8732 17.0898C27.3396 14.4023 28.1993 9.57197 30.701 5.97058C33.5927 1.81069 38.8892 -0.541004 43.9146 0.106346C48.9399 0.75485 53.4656 4.37124 55.2103 9.13001C56.7969 13.4676 56.1565 18.3429 57.5539 22.744C59.1313 27.7301 63.1874 31.6557 64.7036 36.6614C66.8615 43.7834 62.7189 52.2232 55.7653 54.8726" fill="#C2D6FF"/>
<mask id="mask0_489_11570" style="mask-type:luminance" maskUnits="userSpaceOnUse" x="1" y="9" width="65" height="47">
<path d="M1.86523 9.94702H65.485V55.9516H1.86523V9.94702Z" fill="white"/>
</mask>
<g mask="url(#mask0_489_11570)">
<path d="M63.6902 17.1219V14.6907C63.6902 14.4616 63.5119 14.2833 63.2829 14.2833H61.1055V12.4755C61.1055 12.2464 60.9273 12.0682 60.6982 12.0682H58.6105V10.3879C58.6105 10.2723 58.5598 10.1577 58.4701 10.0821C58.3815 10.0054 58.2669 9.96756 58.1394 9.97945C47.3814 11.1637 36.4441 17.364 35.2987 18.0263H32.0905C30.9321 17.364 19.9959 11.1637 9.23678 9.97945C9.12224 9.96756 9.0077 10.0054 8.91909 10.0821C8.82941 10.1577 8.77862 10.2723 8.77862 10.3879V12.0682H6.70396C6.47488 12.0682 6.29659 12.2464 6.29659 12.4755V14.2703H4.11927C3.89019 14.2703 3.7119 14.4486 3.7119 14.6777V17.1219H2.2726C2.04353 17.1219 1.86523 17.3002 1.86523 17.5293V53.7505C1.86523 53.7505 15.8195 54.1201 31.976 55.8771H35.4132C51.5826 54.1331 65.5239 53.7505 65.5239 53.7505V17.5293C65.5239 17.3002 65.3456 17.1219 65.1155 17.1219H63.6902ZM62.8625 15.098V50.4667C62.8625 50.4667 62.8625 50.4667 62.8625 50.4786C60.5966 50.5294 49.3156 50.886 39.0547 53.2038C43.8675 51.5106 52.8047 48.7476 60.6982 48.4418C60.9143 48.4288 61.0926 48.2505 61.0926 48.0344V15.098H62.8625ZM60.2778 12.8829V47.64C53.6195 47.9707 46.2987 49.9567 41.2957 51.5862C45.6623 49.5882 51.977 47.1819 58.228 46.4935C58.4323 46.4687 58.5976 46.2904 58.5976 46.0862V12.8829H60.2778ZM35.8206 18.6757C37.3614 17.7843 47.5975 12.106 57.7828 10.8461V45.7177C48.0816 46.889 38.3285 52.0325 35.8206 53.4329V18.6757ZM32.3833 18.8411H34.9929V53.7257H32.3833V18.8411ZM9.60633 10.8461C19.7787 12.093 30.0277 17.7843 31.5686 18.6757V53.4329C29.0606 52.0325 19.3075 46.889 9.60633 45.7177V10.8461ZM7.11133 12.8829H8.79159V46.0862C8.79159 46.2904 8.94395 46.4687 9.16114 46.4935C15.4121 47.1819 21.7269 49.5882 26.0934 51.5862C21.1034 49.9697 13.7697 47.9707 7.11133 47.64V12.8829ZM4.52664 15.098H6.29659V48.0344C6.29659 48.2505 6.47488 48.4288 6.69099 48.4418C14.5844 48.7476 23.5347 51.5106 28.3345 53.2038C18.0606 50.8741 6.7796 50.5175 4.52664 50.4786C4.52664 50.4786 4.52664 50.4786 4.52664 50.4667V15.098Z" fill="#000F66"/>
</g>
<path d="M29.722 47.6777C26.8963 46.1498 19.474 42.4327 11.72 40.9934C11.5039 40.9556 11.2867 41.0961 11.2488 41.3252C11.211 41.5413 11.3504 41.7574 11.5795 41.7963C19.219 43.2215 26.5398 46.8889 29.3406 48.4039C29.4043 48.4417 29.4681 48.4547 29.5318 48.4547C29.6712 48.4547 29.8117 48.3779 29.8884 48.2385C29.99 48.0343 29.9262 47.7793 29.722 47.6777Z" fill="#000F66"/>
<path d="M14.8348 36.7237C14.7582 36.7207 14.6688 36.8353 14.7802 36.6694C14.3653 36.7158 14.6774 36.1231 14.8563 35.8346C14.7812 35.9418 14.6599 36.1112 14.4744 36.3621C14.6893 35.3365 16.9234 33.0596 19.4453 30.779C16.8649 27.8198 14.6179 24.9457 14.6281 24.8195C14.6281 24.8195 14.2013 24.0717 14.7622 24.4169C14.7948 24.3641 14.4045 24.1756 14.4715 24.1942C14.6246 24.147 14.2287 23.9751 14.3099 23.779C14.4589 23.5236 14.7607 24.2623 14.7513 23.8995C14.7478 23.7671 14.8933 23.6249 14.9657 23.756C14.9281 23.4824 15.017 23.6997 15.1134 23.8225C15.0711 23.5461 15.7804 24.0949 16.0773 24.4461C16.1279 24.3557 15.9479 24.2833 16.0889 24.3233C16.1309 24.4352 16.1101 24.3184 16.1035 24.2804C16.1586 24.2994 16.1744 24.3856 16.1776 24.4535C16.2376 24.4118 16.2406 24.3979 16.2522 24.4895C16.1442 24.4046 16.3428 24.6627 16.3564 24.5449C16.5312 24.8919 16.7214 25.0425 16.3396 24.6703C16.4534 24.9961 16.7896 25.0025 16.8113 25.123C17.0282 25.39 16.9136 25.2045 17.1373 25.3285C16.8844 25.2576 17.1684 25.4429 17.1153 25.373C17.0563 25.2737 17.2329 25.5476 17.2573 25.5898C17.5016 25.5965 18.428 26.8711 19.0091 27.2129C18.9444 27.2176 19.242 27.5506 19.5377 27.8561C19.5414 27.8588 19.5456 27.8617 19.55 27.8657C19.5498 27.8664 19.5495 27.8672 19.5493 27.8682C19.7928 28.1196 20.0319 28.3493 20.0608 28.3572C19.8906 28.3871 20.1223 28.3661 20.0329 28.4696C20.1934 28.3436 20.5831 29.0988 20.6743 29.1216C20.5974 29.0171 20.7022 29.1105 20.7315 29.1579C20.7711 29.2618 20.8671 29.3478 20.9691 29.4286C23.9454 26.8403 26.8457 24.5802 26.9729 24.5901C26.9729 24.5901 27.7219 24.164 27.3759 24.7242C27.429 24.7565 27.6177 24.3668 27.5992 24.434C27.6464 24.5869 27.8185 24.1917 28.0151 24.2727C28.2707 24.4214 27.9662 24.6372 28.3295 24.6279C28.4621 24.6246 28.1692 24.8548 28.0381 24.9272C28.3122 24.8896 28.0946 24.9786 27.9714 25.0746C28.2482 25.0326 27.6987 25.7405 27.3468 26.0371C27.4374 26.0875 27.5098 25.9077 27.4698 26.0487C27.3576 26.0904 27.4747 26.0697 27.5127 26.063C27.4937 26.1181 27.4073 26.1339 27.3394 26.1371C27.3811 26.1969 27.3949 26.1999 27.3033 26.2115C27.3885 26.1038 27.1299 26.3019 27.248 26.3154C26.9002 26.4903 26.7493 26.68 27.1223 26.2986C26.7958 26.4125 26.7894 26.7481 26.6686 26.7699C26.4011 26.9862 26.5871 26.8719 26.4629 27.0951C26.534 26.8427 26.3483 27.1263 26.4184 27.0732C26.3006 27.184 26.1729 27.3075 26.0368 27.4409C26.0331 27.455 26.0203 27.4678 26.0121 27.4654C26.003 27.4742 25.9939 27.4831 25.985 27.492C25.9783 27.5096 25.9647 27.5224 25.9454 27.5308C25.9385 27.5375 25.9319 27.5441 25.9249 27.5511C25.9212 27.5612 25.9109 27.572 25.8975 27.5782C25.6557 27.8168 25.3922 28.0806 25.1163 28.355C25.1173 28.355 25.1178 28.3545 25.1188 28.3542C25.1136 28.3806 25.1003 28.3994 25.0687 28.4029C25.0771 28.3992 25.082 28.3923 25.0865 28.3848C24.9101 28.5599 24.7293 28.739 24.5461 28.9181C24.5399 28.9277 24.533 28.9366 24.5221 28.9418C23.8943 29.5553 23.2408 30.1685 22.6631 30.6261C22.7681 30.5493 22.6745 30.654 22.6271 30.6834C22.5325 30.719 22.4532 30.801 22.3789 30.8919C22.3853 30.8988 22.3922 30.905 22.3991 30.9109C22.3905 30.904 22.3831 30.8986 22.3769 30.8944C22.3739 30.8978 22.3712 30.9013 22.3685 30.9047C22.3762 30.9109 22.3863 30.9186 22.3996 30.9272C22.3816 30.944 22.4018 31.0055 22.4088 30.9519C22.4169 31.0411 22.3611 30.9161 22.3369 30.9566C22.4181 31.0791 22.4139 30.8973 22.4431 31.0102C22.4885 30.9526 22.4656 31.0875 22.5429 31.0868C22.3752 30.9173 22.4172 30.7481 22.5063 30.9887C22.5372 30.7874 22.6446 31.2162 22.7061 31.15C22.5542 31.0062 22.7523 31.0611 22.7491 31.208C22.7827 31.1436 22.9079 31.2742 22.8136 31.2186C22.7409 31.3401 22.9123 31.1944 22.8187 31.3236C22.8985 31.4426 22.6807 31.1515 22.7595 31.2567C22.5802 31.2179 23.0069 31.5106 22.8326 31.4451C22.8402 31.4789 22.8415 31.5414 22.8862 31.5604C22.8721 31.5234 22.8597 31.4384 22.9459 31.4738C22.9195 31.4444 22.8353 31.3429 22.9405 31.3606C22.8311 31.4088 23.0509 31.4683 22.9635 31.5066C22.8224 31.452 23.1037 31.6071 23.143 31.7136C23.0311 31.7262 23.2421 31.8289 23.1366 31.7373C23.2028 31.6662 23.185 31.8222 23.1983 31.8437C23.4023 32.0519 23.1998 31.7173 23.3801 31.946C23.3618 31.8442 23.5076 32.0164 23.4238 32.0117C23.4305 32.0176 23.7624 32.2426 23.6446 32.209C23.6589 32.3014 23.6785 32.2666 23.7434 32.251C23.7093 32.2905 23.8975 32.5002 23.9546 32.4594C23.8955 32.5432 24.1727 32.5009 24.0583 32.5372C24.1292 32.6284 24.0116 32.5046 24.0568 32.6252C24.1163 32.5629 24.061 32.6575 24.1418 32.6899C24.2139 32.5634 24.3305 32.7323 24.329 32.7306C24.3058 32.8045 24.1961 32.6474 24.2687 32.7785C24.2954 32.7887 24.2727 32.7526 24.2994 32.7627C24.3075 32.8744 24.4379 32.8909 24.515 32.9801C24.5152 32.9801 24.5155 32.9798 24.516 32.9798C24.5164 32.9806 24.5167 32.9815 24.5169 32.9825C24.55 33.0218 24.5728 33.0749 24.5708 33.1557C24.6592 33.1245 24.5266 33.0638 24.6091 33.0435C24.5656 33.0628 24.654 33.132 24.6266 33.0593C24.6533 33.0532 24.6397 33.0917 24.6686 33.0831C24.6219 33.1381 24.8615 33.1744 24.7185 33.1944C24.433 33.0707 25.5142 33.7687 25.5303 33.9687C25.7521 33.941 26.1171 34.3211 26.4495 34.6064C26.4051 34.5708 26.1983 34.4552 26.3287 34.5429C26.2989 34.5634 26.2779 34.4933 26.2932 34.5773C26.3663 34.5419 26.3095 34.6568 26.3777 34.6672C26.3371 34.5237 26.4552 34.678 26.5639 34.7978C26.5281 34.679 26.8454 34.887 26.7652 34.9186C26.7649 34.9904 26.9608 34.9895 26.8175 34.9455C26.7723 34.8311 26.8694 34.9922 26.9114 34.9289C27.5663 35.4515 26.3132 34.7363 26.1606 34.5644C26.125 34.5674 26.0237 34.5375 26.0072 34.5392C26.02 34.5763 26.0909 34.5407 26.045 34.5856C25.9684 34.5563 26.0235 34.393 25.9536 34.4296C25.92 34.5422 25.6733 34.1779 25.697 34.3616C25.6965 34.3693 25.4868 34.0218 25.5587 34.2159C25.4587 34.1248 25.5624 34.2737 25.4764 34.2033C25.4569 34.2656 25.4036 34.15 25.4107 34.1174C25.3633 34.1739 25.348 34.1327 25.3576 34.0707C25.3339 34.0369 25.0793 34.0124 25.1939 33.9793C25.1569 33.9583 25.1023 33.9299 25.0697 33.9262C25.1788 34.048 24.9289 33.7934 24.9306 33.7533C24.9027 33.8966 24.8985 33.6696 24.8849 33.7783C24.8178 33.7642 24.7486 33.5844 24.6893 33.6602C24.6925 33.6933 24.7195 33.6874 24.7212 33.66C24.8066 33.7983 24.7111 33.6634 24.7027 33.7165C25.0445 33.968 24.6389 33.8326 25.0514 34.1275C25.0929 34.1038 24.9882 34.0208 24.9348 33.9857C25.0553 33.984 25.1546 34.0675 25.228 34.1404C25.2381 34.1436 25.2477 34.152 25.2554 34.168C25.3157 34.2305 25.3539 34.2732 25.3665 34.2236C25.3902 34.2661 25.5468 34.3528 25.4179 34.3177C25.4115 34.356 25.4473 34.4357 25.447 34.3565C25.489 34.3614 25.4638 34.3856 25.4789 34.4194C25.5523 34.2137 26.5915 35.2829 26.8595 35.1092C27.0255 35.2075 26.8612 35.3026 27.0013 35.3441C26.9808 35.3523 26.8059 35.3182 26.9131 35.3441C26.9249 35.4439 26.9995 35.335 27.0023 35.4483C27.3041 35.4582 27.123 35.4664 27.226 35.578C27.225 35.6232 27.1561 35.5627 27.225 35.618C27.264 35.537 27.2853 35.6921 27.4041 35.6699C27.4438 35.7859 27.0939 35.5417 27.3307 35.7104C27.1914 35.6718 27.3594 35.7667 27.4011 35.7422C27.4619 35.8763 27.7155 35.7504 27.6938 35.9734C27.7209 35.9327 27.7291 35.9734 27.7684 35.9791C27.7874 36.0786 27.8071 35.9615 27.7526 35.9415C27.8422 35.9425 28.0855 36.1828 27.9356 36.084C27.8844 36.1006 27.8573 36.1517 27.9217 36.1342C27.9193 36.188 27.7884 36.11 27.862 36.0942C27.6491 36.111 27.0741 35.8272 27.4342 36.0043C27.3935 36.1349 27.1749 35.8163 27.1428 35.7872C27.2179 35.9369 27.041 35.7101 27.0689 35.8272C27.0282 35.6837 27.0368 35.7543 26.9027 35.7156C27.2406 36.0719 27.0909 35.883 27.6681 36.2811C27.6582 36.3439 27.5777 36.3649 27.5967 36.2908C27.4851 36.1944 27.5903 36.37 27.3725 36.2298C27.4772 36.3555 27.3112 36.2157 27.2164 36.2001C27.1732 36.3654 27.0023 36.7595 26.8395 36.4977C26.6471 36.5696 26.1114 36.0371 26.1089 36.1863C26.2225 36.4073 27.7684 37.2905 27.5093 37.4343C27.2431 37.0628 27.1739 37.3772 26.7822 36.9369C26.7792 37.0132 26.8941 37.1026 26.7279 36.9914C26.7743 37.4056 26.1806 37.0937 25.8916 36.9154C25.999 36.9904 26.1687 37.1115 26.4201 37.2964C25.4026 37.0841 23.1559 34.8946 20.8936 32.4071C20.8753 32.4202 20.8432 32.4365 20.793 32.4552C20.9946 32.4859 20.5651 32.5931 20.6315 32.6545C20.7755 32.5029 20.7207 32.7007 20.5732 32.6973C20.6377 32.7309 20.507 32.8561 20.5629 32.7617C20.4409 32.6894 20.5871 32.8605 20.4577 32.7669C20.3384 32.8464 20.63 32.6291 20.5246 32.7076C20.5634 32.5286 20.2702 32.9549 20.3356 32.7808C20.1144 32.8383 20.3507 32.7768 20.307 32.8939C20.3364 32.8674 20.4381 32.7835 20.4206 32.8884C20.3722 32.7795 20.3127 32.9986 20.2742 32.9114C20.329 32.7706 20.1734 33.0514 20.0669 33.0907C20.0543 32.9791 19.9514 33.1897 20.043 33.084C20.1146 33.1505 19.958 33.1324 19.9363 33.146C19.7278 33.3493 20.0632 33.1475 19.8343 33.3276C19.936 33.309 19.7637 33.4545 19.7683 33.371C19.7624 33.3777 19.5369 33.7089 19.5705 33.5916C19.4782 33.6057 19.513 33.6252 19.5285 33.6901C19.489 33.656 19.2791 33.844 19.3198 33.9008C19.2361 33.8418 19.2783 34.1184 19.2418 34.0045C19.1504 34.0752 19.2746 33.9578 19.1539 34.0028C19.2161 34.0623 19.1215 34.0072 19.0889 34.088C19.2156 34.1599 19.0464 34.2762 19.0482 34.2747C18.9743 34.2515 19.1314 34.1421 19.0003 34.2144C18.9642 34.2466 18.9086 34.374 18.797 34.4528C18.798 34.4552 18.7985 34.458 18.7985 34.4612C18.7945 34.4644 18.7871 34.4649 18.7785 34.4651C18.735 34.4923 18.6836 34.5118 18.6224 34.516C18.6537 34.6044 18.7145 34.472 18.7348 34.5543C18.7152 34.5108 18.6461 34.599 18.7189 34.5716C18.7251 34.5985 18.6863 34.5847 18.6952 34.6136C18.6399 34.5671 18.6036 34.8062 18.5836 34.6634C18.7076 34.3784 18.0082 35.458 17.8079 35.474C17.8358 35.6953 17.4549 36.0598 17.1692 36.3915C17.2047 36.3471 17.3206 36.1409 17.2327 36.2708C17.2124 36.2414 17.2825 36.2201 17.1983 36.2357C17.2336 36.3085 17.1188 36.2517 17.1084 36.3199C17.2522 36.2794 17.0973 36.3972 16.9775 36.5059C17.0966 36.4698 16.8881 36.7869 16.8565 36.7067C16.7844 36.7064 16.7856 36.902 16.8296 36.759C16.9439 36.7138 16.4717 36.8025 16.4302 36.9423C16.4221 36.9218 16.4394 36.9406 16.3258 36.9435C16.3159 37.2446 16.3077 37.064 16.1958 37.1665C16.1507 37.1658 16.2114 37.0969 16.1558 37.1658C16.2371 37.2046 16.0815 37.2258 16.104 37.3446C15.9874 37.3841 16.2324 37.0349 16.0635 37.2713C16.102 37.1322 16.0069 37.2999 16.0314 37.3416C15.897 37.4022 16.0232 37.6553 15.7999 37.6338C15.8407 37.6607 15.7999 37.6689 15.794 37.7082C15.6945 37.7272 15.8118 37.7469 15.8318 37.6924C15.8308 37.782 15.59 38.0248 15.6891 37.8751C15.6723 37.824 15.6211 37.7971 15.6389 37.8613C15.5848 37.8588 15.6631 37.7282 15.6789 37.8015C15.6621 37.5889 15.9464 37.0151 15.7691 37.3745C15.6382 37.3337 15.957 37.1157 15.9864 37.0836C15.8365 37.1586 16.0635 36.982 15.9462 37.01C16.0899 36.9692 16.0193 36.9779 16.058 36.844C15.7012 37.1814 15.8903 37.0319 15.4915 37.6081C15.4287 37.598 15.4075 37.518 15.4821 37.5368C15.5784 37.4254 15.4026 37.5306 15.5431 37.313C15.4169 37.4175 15.5572 37.2517 15.5727 37.1572C15.4073 37.1139 15.163 37.029 15.4253 36.8665C15.6258 36.6602 15.4567 36.4859 15.3072 36.4837C15.0857 36.5968 14.9494 37.3473 14.8056 37.089C15.1776 36.823 14.3937 37.1147 14.8348 36.7237Z" fill="#F20F10"/>
<mask id="mask1_489_11570" style="mask-type:luminance" maskUnits="userSpaceOnUse" x="39" y="24" width="16" height="13">
<path d="M39.7871 24.8674H54.0858V36.6573H39.7871V24.8674Z" fill="white"/>
</mask>
<g mask="url(#mask1_489_11570)">
<path d="M52.4095 25.4766C51.8675 25.7187 51.3483 26.0143 50.8523 26.3442C49.8555 26.9996 48.9439 27.7796 48.0891 28.6118C47.2345 29.4459 46.4389 30.3385 45.6865 31.2668C45.4982 31.4988 44.656 32.5325 44.656 32.5325L42.1446 29.241L39.8301 30.9502L42.3942 33.9702L44.5676 36.5944C45.0276 35.6639 45.4703 34.7454 45.9046 33.9475C46.0126 33.7445 46.1257 33.5537 46.2336 33.3597C46.2336 33.3597 46.7898 32.3834 46.936 32.1375C47.5206 31.1537 48.1524 30.1955 48.8484 29.2853C49.5452 28.3769 50.3025 27.5094 51.1612 26.7469C51.5883 26.3632 52.0431 26.0083 52.5304 25.6994C53.0166 25.3903 53.5333 25.1191 54.0859 24.9246C53.5111 25.0374 52.9501 25.2337 52.4095 25.4766Z" fill="#7DB925"/>
</g>
</svg>
