<svg width="106" height="106" viewBox="0 0 151 151" fill="none" xmlns="http://www.w3.org/2000/svg">
<path d="M97.9826 142.977C94.8038 144.403 91.4791 145.028 88.1713 145.674C83.0266 146.68 77.8099 146.638 72.5945 146.583C67.5 146.53 62.5096 145.695 57.6196 144.389C52.7235 143.081 47.9864 141.293 43.4638 138.947C38.8461 136.551 34.5229 133.749 30.5377 130.4C28.5642 128.741 26.5745 127.105 24.8134 125.222C18.9605 118.963 14.1499 112.022 10.7412 104.113C8.30401 98.4578 6.64182 92.5975 5.62845 86.5515C4.71106 81.0781 4.7252 75.5177 5.09121 70.027C5.60639 62.2984 7.56386 54.8415 10.6186 47.6871C13.0981 41.8798 16.3235 36.5046 20.2281 31.5857C23.2395 27.7922 26.6357 24.3385 30.429 21.2414C35.2975 17.2665 40.5114 13.8942 46.1889 11.2777C51.3162 8.91475 56.7081 7.31366 62.2553 6.15221C68.5732 4.82941 74.9553 4.75253 81.3106 5.08766C88.3173 5.45714 95.121 7.13313 101.679 9.71391C106.463 11.5966 111.001 13.9413 115.263 16.8099C119.66 19.7698 123.769 23.1044 127.376 26.9861C135.035 35.2273 140.617 44.7052 143.805 55.5246C145.068 59.8079 145.898 64.1788 146.344 68.6437C146.563 70.8478 146.465 73.0302 146.554 75.3566C145.918 75.9999 145.438 75.5997 144.979 75.231C144.52 74.8634 144.125 74.4231 143.709 74.0076C136.256 66.5633 128.84 59.0818 121.358 51.6657C120.765 51.0775 120.367 50.3337 119.624 49.7609C119.465 49.692 119.399 49.667 119.238 49.5979C118.961 49.4434 118.805 49.3013 118.568 49.0898C117.161 47.0377 115.512 45.5523 113.038 45.1329C110.677 44.7329 108.585 45.3274 106.945 46.951C99.1604 54.654 91.3033 62.2898 83.7374 70.2052C78.3076 75.8858 72.6454 81.3279 67.1684 86.9569C65.8414 88.3207 65.1025 88.2837 63.6924 86.8803C57.4614 80.6794 51.2742 74.4346 45.0325 68.2443C42.058 65.2943 37.5099 65.3119 34.5898 68.2323C31.7344 71.0881 31.6804 75.6954 34.542 78.5676C40.2958 84.3427 46.0353 90.1325 51.8287 95.868C55.2122 99.2177 58.5035 102.661 62.0462 105.997C62.4879 107.33 63.731 107.735 64.5438 108.559C68.7131 112.784 72.9241 116.968 77.1191 121.168C83.7064 127.763 90.2948 134.357 96.8796 140.955C97.4142 141.49 98.1581 141.939 97.9826 142.977Z" fill="#5321CC"/>
<path d="M119.272 49.3958C120.179 49.2372 120.552 49.9068 121.021 50.3745C128.983 58.3212 136.934 66.2794 144.893 74.229C145.34 74.6753 145.717 75.2153 146.44 75.473C146.946 84.691 145.035 93.4671 141.754 102.002C139.238 108.549 135.704 114.534 131.374 120.001C128.367 123.797 124.957 127.242 121.173 130.349C116.305 134.346 111.056 137.666 105.388 140.336C103.066 141.43 100.693 142.465 98.0491 143.058C97.5088 142.596 97.106 142.102 96.6573 141.653C85.4567 130.444 74.2502 119.241 63.0502 108.032C62.569 107.551 61.9994 107.138 61.6766 106.383C62.0726 105.916 62.5483 105.983 63.031 106.146C66.4323 107.297 69.1577 106.072 71.5703 103.727C77.6629 97.8051 83.4426 91.5754 89.4384 85.558C93.8767 81.1036 98.3882 76.7209 102.757 72.1995C107.432 67.3624 112.11 62.5311 116.888 57.7962C118.738 55.9628 119.322 53.7218 119.088 51.191C119.036 50.6216 118.812 50.0205 119.272 49.3958Z" fill="#3E0DB5"/>
<path d="M119.363 49.3062C120.55 53.1467 119.466 56.2197 116.651 59.0449C101.647 74.1012 86.7308 89.2448 71.7736 104.348C68.7546 107.396 65.7616 107.982 61.7511 106.328C60.6916 105.66 59.8564 104.909 59.0552 104.107C50.8252 95.8624 42.5753 87.6378 34.3525 79.3861C30.9943 76.0162 30.84 71.1294 33.9259 67.8844C37.124 64.5214 42.2201 64.4795 45.6362 67.8667C51.6047 73.7847 57.5309 79.7453 63.4748 85.6881C65.5172 87.7301 65.5158 87.729 67.5618 85.663C80.2897 72.8107 93.0146 59.9554 105.749 47.11C108.507 44.3283 111.916 43.6191 115.158 45.0891C116.78 45.8246 118.013 46.9754 118.931 48.6029C119.221 48.7379 119.292 48.9187 119.37 49.2169C119.413 49.3084 119.376 49.2905 119.363 49.3062Z" fill="white"/>
<path d="M119.397 49.2097C119.301 49.1564 119.188 49.0045 119.035 48.7613C119.123 48.817 119.252 48.964 119.397 49.2097Z" fill="#644CF8"/>
</svg>
