<svg width="135" height="135" viewBox="0 0 135 135" fill="none" xmlns="http://www.w3.org/2000/svg">
<rect width="135" height="135" rx="67.5" fill="#D9D9D9"/>
<path d="M95.8753 91.7743C91.6764 84.5049 85.2056 79.2924 77.6541 76.8214C81.3894 74.5946 84.2915 71.2015 85.9148 67.1632C87.538 63.1249 87.7926 58.6647 86.6395 54.4675C85.4863 50.2703 82.9892 46.5681 79.5316 43.9296C76.074 41.2912 71.8471 39.8622 67.5 39.8622C63.1529 39.8622 58.926 41.2912 55.4684 43.9296C52.0108 46.5681 49.5137 50.2703 48.3605 54.4675C47.2074 58.6647 47.462 63.1249 49.0852 67.1632C50.7084 71.2015 53.6105 74.5946 57.3458 76.8214C49.7943 79.2896 43.3236 84.5022 39.1246 91.7743C38.9706 92.0258 38.8685 92.3055 38.8242 92.5971C38.78 92.8887 38.7945 93.1863 38.8669 93.4722C38.9393 93.758 39.0682 94.0265 39.2459 94.2617C39.4236 94.4969 39.6466 94.6941 39.9016 94.8416C40.1567 94.9892 40.4386 95.084 40.7309 95.1207C41.0231 95.1573 41.3198 95.1349 41.6033 95.0549C41.8867 94.9749 42.1513 94.8388 42.3815 94.6547C42.6116 94.4706 42.8026 94.2423 42.9431 93.9831C48.1374 84.9936 57.3183 79.6265 67.5 79.6265C77.6817 79.6265 86.8626 84.9936 92.0569 93.9831C92.1974 94.2423 92.3884 94.4706 92.6185 94.6547C92.8486 94.8388 93.1132 94.9749 93.3967 95.0549C93.6802 95.1349 93.9768 95.1573 94.2691 95.1207C94.5613 95.084 94.8433 94.9892 95.0983 94.8416C95.3534 94.6941 95.5763 94.4969 95.7541 94.2617C95.9318 94.0265 96.0606 93.758 96.133 93.4722C96.2055 93.1863 96.22 92.8887 96.1757 92.5971C96.1315 92.3055 96.0293 92.0258 95.8753 91.7743ZM52.0606 59.7481C52.0606 56.6902 52.9661 53.701 54.6626 51.1584C56.3591 48.6159 58.7704 46.6342 61.5916 45.464C64.4128 44.2938 67.5171 43.9876 70.5121 44.5842C73.507 45.1808 76.258 46.6533 78.4173 48.8155C80.5765 50.9778 82.047 53.7327 82.6427 56.7318C83.2384 59.7309 82.9327 62.8396 81.7641 65.6647C80.5955 68.4898 78.6166 70.9045 76.0776 72.6034C73.5386 74.3023 70.5536 75.209 67.5 75.209C63.4065 75.2047 59.482 73.5743 56.5875 70.6758C53.693 67.7772 52.065 63.8472 52.0606 59.7481Z" fill="#818181"/>
</svg>
