<svg width="65" height="56" viewBox="0 0 65 56" fill="none" xmlns="http://www.w3.org/2000/svg">
<path d="M5.99293 55.421C0.968172 50.2352 -1.14108 42.3886 0.603878 35.3779C2.3477 28.3672 7.88864 22.4255 14.7589 20.1952C17.7771 19.2153 21.1186 18.8567 23.6264 16.9131C27.057 14.2534 27.9077 9.473 30.3836 5.90884C33.2454 1.79197 38.4871 -0.53541 43.4605 0.105247C48.4339 0.747046 52.9128 4.32605 54.6395 9.03561C56.2097 13.3284 55.5759 18.1533 56.9588 22.5088C58.5199 27.4434 62.534 31.3284 64.0346 36.2824C66.1701 43.3307 62.0704 51.6833 55.1888 54.3053" fill="#C2D6FF"/>
<path d="M17.1888 19.3843C17.4206 18.9206 17.6524 18.457 17.8854 17.9933C17.3418 17.4166 16.9421 16.7531 16.684 16.0028C15.9566 13.8582 16.8439 11.9887 17.0563 11.5719C17.5188 10.672 18.1698 9.93887 19.008 9.37359C19.4831 9.05383 20.5497 8.33324 22.056 8.39262C22.9855 8.44629 23.8295 8.74435 24.5878 9.28566C25.2341 9.74359 25.74 10.3237 26.1055 11.0272C26.4606 11.0535 26.8158 11.0443 27.1687 10.9975C27.5227 10.9518 27.8676 10.8707 28.2033 10.7531C28.5402 10.6366 28.8622 10.487 29.1671 10.3043C29.4732 10.1216 29.7576 9.91033 30.0202 9.66936C30.0762 9.87721 30.3914 10.9849 31.4854 11.5708C32.4903 12.1087 33.7591 11.9945 34.7469 11.2864C34.4683 12.1315 34.7229 13.0382 35.3522 13.5259C36.147 14.1414 37.4329 14.0021 38.1752 13.0919C38.3819 13.0691 39.6986 12.9503 40.6544 13.8867C41.0518 14.2682 41.3065 14.7284 41.4207 15.2674C41.5189 15.779 41.4732 16.2792 41.2837 16.7657C40.868 17.8243 39.9041 18.2583 39.654 18.3713C38.3088 18.9766 37.0263 18.4513 36.7854 18.3474C36.6655 18.755 36.5022 19.1433 36.2966 19.5145C36.1379 19.7931 35.9586 20.0569 35.7564 20.3059V25.583C35.4926 26.114 35.1295 26.5651 34.6704 26.9386C34.3918 27.1635 33.3548 27.9995 31.9228 27.8167C31.4968 27.7654 31.096 27.6363 30.7202 27.4307C30.3445 27.2252 30.0202 26.9568 29.7484 26.6256C29.4184 26.2043 29.2071 25.7303 29.1135 25.2039V22.9324C28.4637 22.8034 27.8573 22.567 27.292 22.2221C26.4435 21.7048 25.7868 21.0082 25.3209 20.1311C24.9909 19.4825 24.8059 18.795 24.7648 18.0676C24.3902 18.4239 23.9642 18.7025 23.4869 18.9035C22.7069 19.2255 22.0274 19.2255 21.4119 19.2255C20.9128 19.2255 20.4172 19.1776 19.9273 19.0817L19.3266 20.2145C19.5938 20.4715 19.8131 20.7627 19.9867 21.0904C20.1671 21.4342 20.3247 21.7334 20.2859 22.1308C20.2528 22.4174 20.1431 22.6709 19.9558 22.8913C20.0289 22.9941 20.086 23.1049 20.1283 23.2225C20.1694 23.3413 20.1934 23.4635 20.2002 23.5891C20.2071 23.7136 20.1968 23.838 20.1683 23.9602C20.1397 24.0824 20.0952 24.1989 20.0346 24.3085C19.8633 24.634 19.6167 24.883 19.2923 25.0577C19.4123 25.3146 19.4499 25.583 19.4088 25.8628C19.3118 26.4338 18.831 26.9111 18.1789 27.0973C18.3331 27.3006 18.405 27.529 18.3936 27.7836C18.3559 28.1091 18.2052 28.3695 17.9414 28.5636C17.239 29.1494 16.1519 28.7315 16.0822 28.7041L13.3346 40.4426H28.8154C28.9981 40.4437 29.1763 40.4711 29.351 40.5248C29.5246 40.5773 29.689 40.6539 29.8409 40.7544C29.9928 40.8549 30.1276 40.9748 30.2452 41.1141C30.3628 41.2534 30.4587 41.4064 30.5318 41.5732L33.1538 52.4552C34.2159 52.2165 35.3259 51.9973 36.4839 51.8054C39.4873 51.3155 42.5113 51.0688 45.5547 51.0654L57.9624 48.5427C58.3427 49.365 58.7184 50.2215 59.0873 51.1145C59.7542 52.7327 60.3229 54.2949 60.8094 55.7864H9.29193C8.95961 54.3406 8.62615 52.8949 8.29155 51.4491C7.87358 51.4308 7.46932 51.344 7.08104 51.1887C5.75747 50.6429 5.15907 49.4792 4.9341 49.0464C4.32427 47.8598 4.33683 46.7589 4.36082 45.762C4.38366 44.7662 4.55267 44.049 4.8199 42.931C5.56904 39.8465 5.94362 38.3048 6.15831 37.5876C6.2885 37.1491 6.88347 35.1757 7.90784 32.4966C8.83285 30.0847 9.66194 27.9195 11.1134 25.2758C12.003 23.661 12.9908 22.1091 14.0769 20.6188C14.3121 20.3024 14.5976 20.0421 14.9345 19.8388C15.3536 19.5978 15.8036 19.4551 16.2855 19.4094C16.5858 19.3694 16.8873 19.3603 17.1888 19.3843Z" fill="white"/>
<path d="M15.5796 30.8089C15.3558 31.8298 15.1148 32.8656 14.8578 33.9174C14.3017 36.1831 13.7021 38.3574 13.0752 40.4381H28.8164C29.2115 40.4427 29.5701 40.5592 29.8944 40.7853C30.2839 41.0662 30.5351 41.4408 30.6493 41.9079L33.156 52.445C35.5975 51.9003 38.0642 51.5097 40.5549 51.2745C42.3033 51.1077 43.9581 51.0289 45.5055 51.0141C47.2516 50.6989 49.0194 50.3654 50.8066 50.0137C53.8146 49.4187 56.7529 48.7952 59.6216 48.1431C59.1157 47.1153 58.3289 45.5417 57.3273 43.6311C54.3456 37.9566 52.8039 35.0593 50.3315 32.1256C48.6105 30.0826 47.3977 28.5774 45.2097 27.1899C44.1019 26.4853 42.9291 25.9143 41.6912 25.4746C40.4544 25.0361 39.1834 24.7403 37.8792 24.5884C37.2706 24.5256 36.6607 24.4971 36.0486 24.5039L35.6261 24.6341C35.6683 24.9482 35.7129 25.2633 35.7563 25.5785C35.5187 26.0593 35.1978 26.4761 34.7936 26.8279C34.5138 27.0723 33.5705 27.8968 32.1716 27.8203C31.9123 27.8054 30.6424 27.7061 29.7483 26.62C29.3189 26.0913 29.0733 25.4872 29.0105 24.8077C26.569 25.2702 24.213 26.0079 21.9439 27.0209C19.6748 28.035 17.5541 29.298 15.5807 30.8089H15.5796Z" fill="#5321CC"/>
<path d="M27.1759 25.1915C27.1622 27.3955 28.6365 29.4854 30.7492 30.1477C31.2905 30.3133 31.8443 30.3921 32.4096 30.3818C32.976 30.3715 33.5265 30.2733 34.0609 30.0872C34.5817 29.9045 35.059 29.643 35.493 29.3026C35.9281 28.9623 36.2958 28.5626 36.5984 28.1013C36.9388 27.5862 37.1809 27.0289 37.3236 26.4283C37.4664 25.8287 37.5029 25.2223 37.431 24.6091C37.3967 24.3384 36.9673 24.335 37.0027 24.6091C37.2562 26.6212 36.1668 28.686 34.3088 29.5345C33.8314 29.748 33.3323 29.8816 32.8127 29.9353C32.292 29.9878 31.777 29.9581 31.2653 29.8451C30.7674 29.7332 30.3015 29.5436 29.8664 29.2764C29.4313 29.008 29.051 28.678 28.7267 28.284C28.3635 27.8512 28.086 27.3681 27.893 26.8371C27.7012 26.3061 27.6041 25.7579 27.6053 25.1938C27.6053 25.1344 27.5836 25.083 27.5425 25.0419C27.5002 24.9996 27.45 24.9791 27.3906 24.9791C27.3312 24.9791 27.2798 24.9996 27.2387 25.0419C27.1964 25.083 27.1759 25.1344 27.1759 25.1938V25.1915Z" fill="white"/>
<path d="M44.0163 48.6466L54.847 45.9972L57.9018 45.2492C58.1701 45.1841 58.0571 44.7707 57.7876 44.8358L46.9638 47.4852L43.909 48.2332C43.6406 48.2983 43.7548 48.7117 44.022 48.6466H44.0163Z" fill="white"/>
<path d="M19.6367 10.8674C19.0269 11.2671 18.5826 11.8038 18.3028 12.4776C18.1361 12.9013 18.0527 13.341 18.0527 13.7966C18.0527 14.2523 18.1361 14.6919 18.3028 15.1156C18.4193 15.4102 18.8521 16.4643 19.9941 17.001C21.5963 17.7548 23.162 16.8115 23.3584 16.6881C23.6074 16.5328 24.9104 15.6786 25.0874 14.0399C25.1091 13.8252 25.2381 12.5267 24.296 11.4487C24.0528 11.1723 23.7718 10.9416 23.4544 10.7566C23.1369 10.5705 22.7977 10.4403 22.438 10.3638C21.0196 10.0429 19.8891 10.7098 19.6367 10.8674Z" fill="#FAD745"/>
<path d="M24.7929 9.22733C24.3807 8.24521 24.4172 7.04041 25.1321 6.20333C25.4256 5.87101 25.7739 5.61407 26.1782 5.43249C26.5824 5.25091 27.0061 5.1607 27.4492 5.16184C27.954 5.15841 28.4245 5.28175 28.8607 5.53299C28.9121 5.56268 28.9658 5.57067 29.024 5.55582C29.0811 5.54098 29.1245 5.50786 29.1553 5.45647C29.185 5.40508 29.1919 5.35141 29.177 5.29317C29.1622 5.23607 29.1291 5.19267 29.0777 5.16184C27.2345 4.09065 24.5805 5.13786 24.1603 7.27909C24.0244 7.98941 24.0963 8.67803 24.3795 9.34381C24.3967 9.39862 24.4309 9.43974 24.48 9.46829C24.5303 9.49684 24.5828 9.50483 24.6388 9.49341C24.6959 9.47742 24.7381 9.4443 24.7667 9.39406C24.7964 9.34267 24.8032 9.28899 24.7884 9.23304L24.7929 9.22733Z" fill="#000F66"/>
<path d="M25.8572 10.9714C27.3521 11.7 29.3038 11.1895 30.2048 9.77803C30.3544 9.54392 29.9833 9.32923 29.8348 9.56105C29.0662 10.7659 27.3532 11.2249 26.0731 10.6014C25.8253 10.4826 25.6083 10.8515 25.8572 10.9726V10.9714Z" fill="#000F66"/>
<path d="M29.7048 9.85088C29.7596 10.2997 29.9058 10.7165 30.1445 11.1002C30.3843 11.4839 30.6938 11.798 31.0729 12.0446C31.4566 12.2856 31.8735 12.4283 32.3246 12.474C32.7745 12.5197 33.213 12.4638 33.6367 12.305C34.1346 12.1257 34.5537 11.8345 34.8963 11.4314C35.0733 11.2224 34.7661 10.9118 34.5925 11.1288C34.4372 11.3206 34.2579 11.4873 34.0524 11.6267C33.848 11.766 33.6276 11.8733 33.3923 11.9476C33.1559 12.0229 32.9138 12.0618 32.666 12.0641C32.4193 12.0675 32.1761 12.0355 31.9386 11.967C31.6999 11.8985 31.4772 11.7968 31.2694 11.6621C31.0615 11.5285 30.8765 11.3663 30.7166 11.1779C30.5556 10.9894 30.4266 10.7816 30.3272 10.5543C30.2279 10.3282 30.1639 10.0918 30.1342 9.84631C30.1022 9.57566 29.6728 9.57109 29.7048 9.84631V9.85088Z" fill="#000F66"/>
<path d="M34.4463 11.3333C34.3469 11.4966 34.2681 11.6701 34.211 11.854C34.1551 12.0367 34.1208 12.224 34.1105 12.4159C34.0991 12.6066 34.1117 12.7973 34.1482 12.9846C34.1836 13.173 34.2419 13.3546 34.3218 13.5293C34.4052 13.6995 34.5079 13.8571 34.6301 14.001C34.7535 14.146 34.8928 14.2716 35.047 14.3812C35.2023 14.4897 35.369 14.5777 35.546 14.6439C35.7242 14.7101 35.9069 14.7524 36.0953 14.7729C36.5327 14.8255 36.9495 14.757 37.3469 14.5674C37.5959 14.4486 37.3778 14.0786 37.1299 14.1962C36.9495 14.2842 36.7611 14.3401 36.5624 14.3652C36.3637 14.3915 36.1672 14.3835 35.9708 14.3447C35.7755 14.3047 35.5905 14.2351 35.4181 14.1346C35.2445 14.0341 35.0926 13.9085 34.9602 13.7577C34.8288 13.6081 34.7249 13.4402 34.6484 13.2552C34.5719 13.0702 34.5274 12.8784 34.5148 12.6785C34.5011 12.4787 34.5205 12.2823 34.5719 12.0893C34.6233 11.8963 34.7044 11.717 34.8151 11.5502C34.9636 11.315 34.5924 11.1003 34.4463 11.3333Z" fill="#000F66"/>
<path d="M37.4779 14.4041C37.5762 14.2648 37.6904 14.1392 37.8217 14.0284C37.9519 13.9165 38.0935 13.824 38.2476 13.7486C38.4018 13.6744 38.5617 13.6196 38.7296 13.5853C38.8974 13.5511 39.0676 13.5385 39.2377 13.5476C39.4148 13.5568 39.5883 13.5887 39.7562 13.6424C39.9252 13.6972 40.084 13.7715 40.2336 13.8662C40.3832 13.961 40.5191 14.0729 40.6401 14.2031C40.7612 14.3322 40.8628 14.4749 40.9473 14.6302C41.1312 14.95 41.2339 15.2949 41.2556 15.6626C41.2773 16.0315 41.2157 16.3855 41.0695 16.7235C40.9199 17.0684 40.7075 17.3699 40.4323 17.6268C40.1571 17.8838 39.843 18.0756 39.489 18.2035C39.0356 18.352 38.572 18.3977 38.0992 18.3383C37.6253 18.28 37.1867 18.1224 36.7848 17.8666C36.5495 17.7216 36.3325 18.0928 36.5689 18.2366C36.98 18.4936 37.4243 18.6626 37.9028 18.7426C38.3801 18.8225 38.8552 18.8076 39.328 18.6992C39.7608 18.5907 40.1525 18.3988 40.5042 18.1247C40.856 17.8518 41.138 17.5183 41.3493 17.1255C41.4532 16.9348 41.5332 16.7326 41.5891 16.5225C41.6451 16.3124 41.677 16.0977 41.6828 15.8807C41.6896 15.6626 41.6702 15.4468 41.6268 15.2344C41.5823 15.0208 41.5149 14.8152 41.4224 14.6177C41.3367 14.4247 41.2282 14.2454 41.0981 14.0787C40.9679 13.9131 40.8194 13.7658 40.6515 13.6367C40.4848 13.5077 40.3044 13.4015 40.1102 13.317C39.9172 13.2324 39.7162 13.1742 39.5073 13.1399C39.2789 13.1057 39.0493 13.1045 38.8209 13.1342C38.5914 13.1651 38.371 13.2256 38.1586 13.3181C37.9462 13.4095 37.7509 13.5294 37.5727 13.6755C37.3934 13.8217 37.2393 13.9907 37.1068 14.1803C36.9549 14.411 37.3261 14.6268 37.4779 14.3961V14.4041Z" fill="#000F66"/>
<path d="M38.0117 16.4894C38.0117 16.5157 38.0185 16.4529 38.0196 16.4483L38.0356 16.3752C38.0482 16.3284 38.063 16.2805 38.0779 16.2336C38.1087 16.1503 38.1476 16.0703 38.1944 15.995C38.2903 15.8362 38.4114 15.698 38.5564 15.5816C38.8499 15.3417 39.1845 15.2321 39.5625 15.2549C39.6219 15.2549 39.6721 15.2344 39.7144 15.1921C39.7566 15.151 39.7772 15.0996 39.7772 15.0403C39.7772 14.9809 39.7566 14.9306 39.7144 14.8884C39.6721 14.8473 39.6219 14.8256 39.5625 14.8256C39.4449 14.8221 39.3261 14.829 39.2096 14.8473C39.0931 14.8644 38.9778 14.8929 38.8659 14.9318C38.7551 14.9694 38.6466 15.0186 38.5438 15.0768C38.441 15.135 38.344 15.2024 38.2538 15.2789C38.1635 15.3543 38.0802 15.4388 38.0048 15.5302C37.9294 15.6215 37.8632 15.7186 37.8061 15.8225C37.749 15.9253 37.701 16.0338 37.6633 16.1457C37.6257 16.2576 37.5994 16.373 37.5823 16.4894C37.5674 16.6048 37.6919 16.7041 37.797 16.7041C37.8563 16.703 37.9054 16.6813 37.9477 16.6402C37.9888 16.5991 38.0105 16.5488 38.0117 16.4894Z" fill="#000F66"/>
<path d="M24.5412 18.0677C24.62 20.1918 26.084 22.0693 28.0437 22.8264C30.1621 23.6464 32.6059 23.1702 34.4057 21.8363C35.3947 21.0963 36.1872 20.185 36.7856 19.1047C36.9158 18.8626 36.5504 18.6467 36.4145 18.8877C35.4301 20.6464 33.813 22.0967 31.8317 22.6003C29.8069 23.121 27.5595 22.6003 26.1628 20.9981C25.8042 20.5904 25.5222 20.1347 25.3178 19.6311C25.1133 19.1286 24.9969 18.6056 24.9706 18.0632C24.9603 17.7868 24.5309 17.7857 24.5412 18.0632V18.0677Z" fill="#000F66"/>
<path d="M35.5371 20.3026V25.5809C35.5371 25.6403 35.5588 25.6905 35.5999 25.7328C35.6422 25.775 35.6924 25.7956 35.7518 25.7956C35.8112 25.7956 35.8626 25.775 35.9037 25.7328C35.9459 25.6905 35.9665 25.6403 35.9665 25.5809V20.3026C35.9665 20.2432 35.9459 20.193 35.9037 20.1507C35.8626 20.1096 35.8112 20.0879 35.7518 20.0879C35.6924 20.0879 35.6422 20.1096 35.5999 20.1507C35.5588 20.193 35.5371 20.2432 35.5371 20.3026Z" fill="#000F66"/>
<path d="M35.568 25.4723C34.9467 26.6771 33.7579 27.5542 32.3807 27.6055C31.5128 27.6341 30.6894 27.4251 30.1058 26.7456C29.6285 26.1895 29.3841 25.4632 29.2162 24.7643C29.1511 24.4948 28.7377 24.609 28.8028 24.8773C29.0929 26.0856 29.665 27.3372 30.8915 27.8202C31.9433 28.2348 33.2554 28.0692 34.217 27.513C34.9673 27.0722 35.5406 26.4647 35.9368 25.6916C36.067 25.4472 35.6936 25.2291 35.568 25.4757V25.4723Z" fill="#000F66"/>
<path d="M36.0452 24.7185C37.6143 24.7071 39.1537 24.9161 40.6622 25.3478C42.1708 25.7783 43.588 26.4133 44.915 27.2526C45.6676 27.7288 46.3756 28.2633 47.038 28.8594C47.2424 29.0444 47.5462 28.7406 47.3406 28.5556C46.1358 27.4787 44.8031 26.5937 43.3413 25.9005C41.8807 25.2085 40.3516 24.7368 38.7551 24.4867C37.8564 24.3463 36.953 24.28 36.0452 24.2892C35.7688 24.2892 35.7688 24.7208 36.0452 24.7185Z" fill="#000F66"/>
<path d="M50.1436 32.2282C51.5243 34.1901 52.8216 36.2103 54.0549 38.2693C55.3123 40.3614 56.5045 42.4912 57.6317 44.6564C58.2529 45.8441 58.8559 47.0409 59.4394 48.2469C59.5605 48.4958 59.9293 48.2777 59.8094 48.0299C58.7634 45.8704 57.6579 43.7394 56.4965 41.6382C55.3134 39.5026 54.0675 37.4059 52.7576 35.3481C52.0348 34.2209 51.289 33.1086 50.5205 32.0123C50.3617 31.7873 49.9906 32.002 50.1505 32.2282H50.1436Z" fill="#000F66"/>
<path d="M39.4725 35.5162C40.1291 39.8626 41.4629 43.9909 43.4717 47.9011C44.037 48.9997 44.6514 50.0697 45.316 51.1135C45.4633 51.3453 45.8356 51.1306 45.686 50.8965C43.3358 47.2125 41.64 43.2486 40.5985 39.005C40.3061 37.8162 40.0686 36.6148 39.887 35.402C39.8447 35.1302 39.4325 35.2455 39.4725 35.5162Z" fill="#000F66"/>
<path d="M45.5916 51.3327L56.573 49.003L59.6747 48.3452C59.9453 48.287 59.8311 47.8736 59.5616 47.9307L48.5802 50.2615L45.4774 50.9193C45.2079 50.9764 45.321 51.3898 45.5916 51.3327Z" fill="#000F66"/>
<path d="M15.6884 30.9939C17.6526 29.4865 19.7653 28.2269 22.0253 27.215C24.2865 26.2044 26.6332 25.4689 29.0668 25.0099C29.3375 24.9573 29.2233 24.5451 28.9526 24.5965C27.0409 24.9585 25.1783 25.4906 23.3637 26.1918C21.5491 26.893 19.8133 27.7518 18.1551 28.7693C17.2267 29.3403 16.3313 29.957 15.4669 30.6193C15.2499 30.7849 15.4669 31.1583 15.6827 30.9893L15.6884 30.9939Z" fill="#000F66"/>
<path d="M29.2617 5.32305C29.3645 5.0307 29.5004 4.75434 29.6705 4.49511C29.8395 4.23588 30.0382 4.00177 30.2644 3.7905C30.4905 3.57923 30.7394 3.39766 31.0101 3.24691C31.2807 3.09617 31.5651 2.97969 31.8631 2.89746C32.1601 2.82095 32.4604 2.78212 32.7665 2.78212C33.0714 2.78098 33.3729 2.81752 33.6686 2.8929C33.9656 2.96827 34.2476 3.07904 34.516 3.22522C34.7855 3.37139 35.031 3.5484 35.2549 3.75624C35.787 4.23131 36.1513 4.8103 36.3477 5.49549C36.3649 5.55145 36.398 5.5937 36.4494 5.62225C36.5008 5.6508 36.5544 5.65766 36.6115 5.64167C36.6675 5.62568 36.7109 5.59256 36.7395 5.54232C36.7691 5.49093 36.776 5.43725 36.7611 5.38129C36.6641 5.0524 36.5293 4.74064 36.3569 4.44372C36.1844 4.14794 35.9789 3.87729 35.7414 3.62948C35.5038 3.38281 35.24 3.16812 34.9511 2.98426C34.661 2.80154 34.3538 2.65422 34.0295 2.54459C32.6922 2.09236 31.2316 2.43724 30.1524 3.32571C29.5381 3.82933 29.1041 4.45857 28.8517 5.21342C28.7649 5.4738 29.1795 5.58914 29.2651 5.32762L29.2617 5.32305Z" fill="#000F66"/>
<path d="M36.6704 5.62328C37.5806 4.99633 38.8482 4.86158 39.892 5.1996C40.4356 5.36519 40.8649 5.68495 41.1813 6.15659C41.5147 6.67049 41.6803 7.23463 41.678 7.84788C41.6826 8.19048 41.6278 8.52394 41.517 8.84827C41.4051 9.17259 41.2418 9.46837 41.0282 9.73673C40.8535 9.94914 41.1584 10.2563 41.3309 10.0394C41.5444 9.77099 41.7157 9.47864 41.8448 9.16117C41.9727 8.8437 42.0538 8.51366 42.0869 8.17221C42.1188 7.83075 42.1029 7.49272 42.0378 7.15583C41.9727 6.82009 41.8608 6.49919 41.702 6.19542C41.0751 5.00547 39.7652 4.52469 38.4725 4.60349C37.7393 4.63318 37.0644 4.85016 36.45 5.25328C36.225 5.40859 36.4386 5.77403 36.667 5.62328H36.6704Z" fill="#000F66"/>
<path d="M41.0226 10.0246C41.2579 10.1285 41.4737 10.261 41.6736 10.422C41.8723 10.5841 42.047 10.7691 42.1977 10.977C42.3473 11.1848 42.4684 11.4087 42.5586 11.6485C42.65 11.8883 42.7071 12.1361 42.7322 12.3908C42.7573 12.6466 42.7493 12.9001 42.7071 13.1536C42.6648 13.406 42.5894 13.6492 42.4832 13.8834C42.3759 14.1163 42.24 14.331 42.0767 14.5286C41.9122 14.7261 41.7261 14.8986 41.516 15.0459C41.2933 15.2046 41.5068 15.5769 41.7329 15.417C42.1121 15.1475 42.4227 14.8164 42.6659 14.4212C42.9092 14.0261 43.0656 13.599 43.1342 13.1399C43.1981 12.6854 43.1696 12.2366 43.0474 11.7935C42.9252 11.3504 42.7196 10.9507 42.4318 10.5921C42.1087 10.1856 41.7112 9.87268 41.2396 9.65456C40.9918 9.53922 40.7737 9.91494 41.0238 10.0246H41.0226Z" fill="#000F66"/>
<path d="M35.9817 21.9001L39.1039 18.7688C39.1415 18.7265 39.1598 18.6774 39.1587 18.6203C39.1575 18.5632 39.1358 18.5141 39.0959 18.4741C39.0559 18.4342 39.0068 18.4125 38.9497 18.4113C38.8926 18.409 38.8435 18.4273 38.8012 18.4661L35.6779 21.5975C35.6402 21.6397 35.6219 21.69 35.6242 21.7459C35.6254 21.803 35.6459 21.8521 35.687 21.8921C35.727 21.9321 35.775 21.9538 35.8321 21.9549C35.8892 21.9572 35.9394 21.9389 35.9817 21.9001Z" fill="#000F66"/>
<path d="M9.10669 53.86C8.44662 50.9103 7.91445 47.9331 7.51247 44.9274C7.39941 44.0823 7.29777 43.2372 7.20527 42.3921C7.17558 42.1204 6.74619 42.1169 6.77588 42.3921C7.10706 45.4276 7.56728 48.4436 8.15884 51.4401C8.32785 52.2864 8.50486 53.1314 8.69215 53.9742C8.75267 54.2437 9.16607 54.1284 9.10669 53.86Z" fill="#000F66"/>
<path d="M7.23475 42.3919C7.22447 42.2925 7.22447 42.1932 7.23247 42.0938C7.24046 41.9933 7.25873 41.8963 7.285 41.7992C7.31126 41.7033 7.34666 41.6108 7.39006 41.5206C7.4346 41.4315 7.48599 41.347 7.54651 41.267C7.6059 41.186 7.67213 41.1129 7.74522 41.0455C7.81945 40.977 7.89825 40.9176 7.98275 40.8639C8.06726 40.8114 8.15634 40.7668 8.24884 40.7303C8.34248 40.6938 8.43841 40.6663 8.53548 40.6481C8.59258 40.6321 8.63483 40.599 8.66338 40.5487C8.69307 40.4985 8.69992 40.4448 8.68508 40.3877C8.66909 40.3329 8.63483 40.2906 8.58458 40.2609C8.53548 40.2324 8.4818 40.2244 8.42585 40.237C7.44716 40.4003 6.68545 41.4075 6.80422 42.3942C6.80765 42.4536 6.83049 42.5038 6.87274 42.5438C6.91499 42.5849 6.96638 42.6054 7.02577 42.6066C7.08515 42.6054 7.1354 42.5849 7.17651 42.5426C7.21876 42.5015 7.23932 42.4501 7.24046 42.3919H7.23475Z" fill="#000F66"/>
<path d="M8.48227 40.6528H28.8131C28.8725 40.6516 28.9228 40.6311 28.9639 40.5888C29.0061 40.5477 29.0267 40.4963 29.0267 40.4381C29.0267 40.3787 29.0061 40.3285 28.9639 40.2862C28.9228 40.2439 28.8725 40.2234 28.8131 40.2234H8.48227C8.42289 40.2234 8.37264 40.2439 8.33039 40.2862C8.28928 40.3285 8.26758 40.3787 8.26758 40.4381C8.26758 40.4963 8.28928 40.5477 8.33039 40.5888C8.37264 40.6311 8.42289 40.6516 8.48227 40.6528Z" fill="#000F66"/>
<path d="M28.8075 40.7018C28.997 40.6904 29.1832 40.7132 29.3648 40.7692C29.5452 40.8252 29.7119 40.9108 29.8615 41.0273C30.0123 41.1438 30.1367 41.282 30.2372 41.443C30.3366 41.6051 30.4051 41.7787 30.4417 41.9649C30.4588 42.0208 30.4919 42.0631 30.5422 42.0916C30.5924 42.1202 30.6461 42.1282 30.702 42.1145C30.7568 42.0973 30.7991 42.0642 30.8276 42.014C30.8573 41.9637 30.8653 41.9101 30.8516 41.8541C30.8276 41.7399 30.7934 41.628 30.7489 41.5195C30.7043 41.4099 30.6506 41.3059 30.589 41.2066C30.5262 41.1072 30.4554 41.0147 30.3766 40.9279C30.2978 40.8412 30.2121 40.7612 30.1185 40.6904C30.026 40.6185 29.9278 40.5557 29.8238 40.5008C29.7188 40.4472 29.6114 40.4015 29.4995 40.3661C29.3876 40.3318 29.2734 40.3056 29.1569 40.2907C29.0404 40.2759 28.924 40.2713 28.8063 40.2759C28.7481 40.2781 28.6978 40.2998 28.6567 40.341C28.6156 40.3821 28.5951 40.4323 28.5928 40.4906C28.5939 40.5499 28.6145 40.6002 28.6556 40.6413C28.6978 40.6836 28.7481 40.7053 28.8063 40.7053L28.8075 40.7018Z" fill="#000F66"/>
<path d="M30.4418 41.8679L32.7052 51.4949L33.3413 54.1946C33.4041 54.4629 33.8175 54.3499 33.7547 54.0804L31.4924 44.4534L30.8552 41.7526C30.7935 41.4853 30.3801 41.5984 30.4418 41.8679Z" fill="#000F66"/>
<path d="M33.7972 54.5304H42.6921C42.7481 54.527 42.7949 54.5041 42.8326 54.463C42.8714 54.4219 42.8897 54.3728 42.8897 54.3168C42.8897 54.2609 42.8714 54.2118 42.8326 54.1706C42.7949 54.1295 42.7481 54.1067 42.6921 54.1033H33.7972C33.7412 54.1067 33.6944 54.1295 33.6567 54.1706C33.619 54.2118 33.5996 54.2609 33.5996 54.3168C33.5996 54.3728 33.619 54.4219 33.6567 54.463C33.6944 54.5041 33.7412 54.527 33.7972 54.5304Z" fill="#000F66"/>
<path d="M42.7906 54.5338C42.9961 54.5155 43.1994 54.5338 43.3981 54.5886C43.5968 54.6423 43.7807 54.7302 43.9485 54.8501C44.1164 54.97 44.258 55.115 44.3745 55.2852C44.4898 55.4565 44.5732 55.6415 44.6223 55.8425C44.684 56.112 45.0974 55.9967 45.0368 55.7272C45.006 55.6061 44.9649 55.4873 44.9124 55.372C44.861 55.2578 44.8005 55.1482 44.7297 55.0431C44.6588 54.9392 44.5801 54.8421 44.4921 54.7519C44.4042 54.6617 44.3094 54.5795 44.2066 54.5064C44.105 54.4321 43.9965 54.3682 43.8834 54.3134C43.7704 54.2586 43.6528 54.214 43.5317 54.1798C43.4107 54.1455 43.2873 54.1215 43.1617 54.109C43.0372 54.0964 42.9116 54.0952 42.786 54.1044C42.7266 54.1055 42.6775 54.1272 42.6352 54.1683C42.5941 54.2094 42.5724 54.2597 42.5713 54.3191C42.5713 54.3773 42.593 54.4287 42.6341 54.4698C42.6764 54.5121 42.7266 54.5326 42.786 54.5338H42.7906Z" fill="#000F66"/>
<path d="M17.1719 50.0376C17.2689 51.0197 18.0489 51.8191 18.9933 52.0418C19.9378 52.2645 20.9598 51.8591 21.5685 51.1134C21.7216 50.9284 21.8449 50.7274 21.9408 50.507C22.0356 50.2877 22.0996 50.0593 22.1304 49.8218C22.1601 49.5843 22.1578 49.3479 22.1213 49.1115C22.0847 48.8751 22.0162 48.6478 21.9157 48.4309C21.8209 48.2139 21.6987 48.0129 21.5491 47.829C21.3995 47.6452 21.2282 47.4853 21.0352 47.3482C20.8422 47.2112 20.6344 47.1027 20.4106 47.0228C20.1879 46.9417 19.9583 46.8937 19.7219 46.8755C19.4604 46.8652 19.2012 46.8914 18.9465 46.9543C18.6919 47.0182 18.452 47.1176 18.2248 47.25C17.9987 47.3836 17.7965 47.5458 17.6172 47.7377C17.4379 47.9307 17.2895 48.1431 17.1719 48.3783C17.0554 48.6273 17.4242 48.8454 17.543 48.5953C17.6287 48.4183 17.736 48.255 17.8639 48.1054C17.9918 47.9546 18.1368 47.8233 18.2979 47.7114C18.46 47.5995 18.6336 47.5093 18.8186 47.4407C19.0036 47.3734 19.1943 47.33 19.3908 47.3117C19.5849 47.2991 19.7779 47.3128 19.9686 47.3517C20.1593 47.3916 20.3409 47.4544 20.5156 47.5424C20.6892 47.6303 20.8479 47.7388 20.993 47.869C21.138 47.9992 21.2636 48.1465 21.3687 48.3098C21.4749 48.4731 21.5571 48.6478 21.6165 48.834C21.6747 49.019 21.709 49.2097 21.717 49.4038C21.7261 49.598 21.709 49.791 21.6656 49.9805C21.6233 50.1701 21.556 50.3517 21.4658 50.5241C21.3664 50.6966 21.2476 50.853 21.1083 50.9946C20.969 51.1362 20.8137 51.2573 20.6424 51.3589C20.4711 51.4594 20.2906 51.5371 20.0988 51.5919C19.9081 51.6456 19.7128 51.6741 19.5141 51.6775C18.6142 51.665 17.6926 50.9626 17.6081 50.0376C17.5807 49.7658 17.1513 49.7624 17.1787 50.0376H17.1719Z" fill="#000F66"/>
<path d="M15.8094 28.9462L13.7481 37.687L13.16 40.1834C13.0961 40.4529 13.5106 40.5671 13.5734 40.2988L15.6347 31.5568L16.2228 29.0604C16.2868 28.7921 15.8722 28.6767 15.8094 28.9462Z" fill="#000F66"/>
<path d="M15.3661 28.6562C15.8869 28.8732 16.4373 29.089 17.014 29.0799C17.2447 29.0799 17.4674 29.0353 17.6809 28.9463C17.8956 28.8572 18.0841 28.7304 18.2462 28.566C18.4107 28.4015 18.518 28.2051 18.5683 27.9767C18.6174 27.7495 18.6025 27.5256 18.5226 27.3075C18.3364 26.8199 17.923 26.4933 17.4548 26.2934C16.8587 26.033 16.2066 25.904 15.5854 25.7316C15.5294 25.719 15.4769 25.727 15.4267 25.7567C15.3776 25.7864 15.3456 25.8286 15.3307 25.8846C15.3147 25.9394 15.3216 25.9931 15.349 26.0433C15.3764 26.0936 15.4175 26.1278 15.4723 26.145C15.9497 26.2751 16.4305 26.4053 16.9033 26.5492C17.3087 26.6783 17.7392 26.8507 17.9904 27.2139C18.0452 27.2835 18.0875 27.36 18.1172 27.4434C18.1457 27.5268 18.1617 27.6136 18.1629 27.7015C18.164 27.7906 18.1503 27.8774 18.1229 27.9619C18.0955 28.0452 18.0555 28.1229 18.0018 28.1948C17.8854 28.3342 17.746 28.4438 17.5816 28.5226C17.4183 28.6025 17.2458 28.6448 17.0643 28.6493C16.5104 28.6745 15.9805 28.4506 15.478 28.2428C15.4221 28.2279 15.3684 28.2359 15.3182 28.2645C15.2679 28.2942 15.2348 28.3364 15.2177 28.3924C15.2051 28.4484 15.2131 28.502 15.2417 28.5523C15.2702 28.6014 15.3125 28.6356 15.3673 28.6528L15.3661 28.6562Z" fill="#000F66"/>
<path d="M19.1452 26.6439C19.8897 26.0946 19.7013 24.9732 19.0687 24.4148C18.6724 24.0939 18.2259 23.8746 17.7291 23.757C17.1478 23.5914 16.5586 23.4589 15.9693 23.3116C15.7089 23.2454 15.5879 23.6588 15.8562 23.7261C16.3621 23.8552 16.8692 23.9751 17.3751 24.1053C17.8022 24.1955 18.203 24.3531 18.5787 24.5769C18.7329 24.6717 18.8631 24.7939 18.9682 24.9424C19.0721 25.0908 19.144 25.253 19.1806 25.4311C19.2411 25.7269 19.1806 26.0821 18.9282 26.2728C18.7089 26.4338 18.9225 26.8072 19.1452 26.6439Z" fill="#000F66"/>
<path d="M20.0343 24.6091C20.3655 24.3156 20.4545 23.8645 20.3757 23.4385C20.3289 23.2204 20.2421 23.0194 20.1165 22.8344C19.9909 22.6494 19.8356 22.4952 19.6506 22.3719C19.2497 22.0796 18.7667 21.9231 18.3008 21.7666L16.5444 21.1728C16.2851 21.0849 16.1698 21.4994 16.4302 21.5874L17.9056 22.0853C18.3384 22.2097 18.7564 22.3719 19.1607 22.5706C19.4918 22.751 19.7968 23.0068 19.9167 23.3757C20.0217 23.7012 19.9989 24.0655 19.7305 24.3019C19.5238 24.4857 19.8287 24.7884 20.0343 24.6056V24.6091Z" fill="#000F66"/>
<path d="M20.0983 23.0398C20.6933 22.4369 20.5563 21.465 20.0584 20.8472C19.7626 20.5012 19.4097 20.2282 19.0009 20.0273C18.5726 19.8 18.1295 19.6081 17.6716 19.4506C16.7192 19.1251 15.7279 19.0977 14.852 19.6458C14.072 20.1323 13.6187 20.8872 13.1333 21.6352C11.6704 23.8872 10.2715 26.1575 9.19802 28.6276C8.44545 30.3714 7.80479 32.1586 7.155 33.9458C7.0625 34.2062 7.4759 34.3181 7.5684 34.0589C8.52197 31.3878 9.48809 28.703 10.8402 26.2031C11.4477 25.0977 12.0987 24.0311 12.7782 22.9747C13.211 22.2998 13.6278 21.6078 14.0926 20.9546C14.5802 20.2682 15.3385 19.6801 16.2064 19.6356C16.7489 19.6287 17.2685 19.7315 17.7675 19.9428C18.2449 20.1141 18.6994 20.3345 19.1311 20.6017C19.5079 20.8438 19.8574 21.1727 19.9933 21.6123C20.1132 22.0029 20.0846 22.438 19.7911 22.7372C19.597 22.9336 19.8996 23.2374 20.0938 23.0398H20.0983Z" fill="#000F66"/>
<path d="M5.8651 37.7189L4.99148 41.3104C4.71055 42.4661 4.4045 43.6207 4.24234 44.8004C4.08931 45.9184 4.05733 47.0855 4.37252 48.1829C4.61919 49.06 5.06 49.824 5.69381 50.4772C6.03298 50.8346 6.42696 51.1156 6.87462 51.3211C7.32343 51.5255 7.79393 51.6397 8.28613 51.6614C8.56135 51.6683 8.56135 51.24 8.28613 51.2332C6.56971 51.1898 5.2667 49.6869 4.8042 48.135C4.16582 46.004 4.84873 43.712 5.35463 41.6302L6.27736 37.8319C6.3436 37.5636 5.9302 37.4494 5.8651 37.7189Z" fill="#000F66"/>
<path d="M19.0621 40.2429C19.3715 37.6951 19.8409 35.1759 20.4701 32.6875C20.5387 32.4282 20.1241 32.3072 20.0567 32.5744C19.4207 35.1005 18.9456 37.6563 18.6327 40.2429C18.5996 40.5158 19.029 40.5135 19.0621 40.2429Z" fill="#000F66"/>
<path d="M35.8712 52.1902C38.3676 51.7722 40.8731 51.3531 43.406 51.2663C44.122 51.2423 44.8369 51.2446 45.553 51.2777C45.8282 51.2926 45.8282 50.8632 45.553 50.8506C42.9938 50.7261 40.4414 51.0288 37.9176 51.4228C37.197 51.5358 36.4776 51.6557 35.7581 51.7768C35.4863 51.8224 35.6005 52.2358 35.8712 52.1902Z" fill="#000F66"/>
<path d="M57.7757 48.6557C58.6345 50.4932 59.3893 52.3729 60.0402 54.2949C60.1282 54.5553 60.5427 54.4434 60.4536 54.1818C59.7901 52.2245 59.0204 50.3105 58.1445 48.4388C58.0292 48.1887 57.6581 48.4068 57.7757 48.6557Z" fill="#000F66"/>
<path d="M2.52036 55.9999H64.5864C64.6458 55.9999 64.6972 55.9782 64.7383 55.936C64.7806 55.8949 64.8011 55.8435 64.8011 55.7853C64.8011 55.7259 64.7806 55.6745 64.7383 55.6334C64.6972 55.5911 64.6458 55.5706 64.5864 55.5706H2.52036C2.46097 55.5706 2.41073 55.5911 2.36847 55.6334C2.32622 55.6745 2.30566 55.7259 2.30566 55.7853C2.30566 55.8435 2.32622 55.8949 2.36847 55.936C2.41073 55.9782 2.46097 55.9999 2.52036 55.9999Z" fill="#000F66"/>
<path d="M28.8129 15.3954C28.4589 15.7688 28.0695 16.2028 28.0524 16.7464C28.0375 17.1883 28.2967 17.6794 28.757 17.7753C28.8129 17.7879 28.8666 17.7799 28.9168 17.7513C28.966 17.7228 29.0002 17.6805 29.0173 17.6257C29.031 17.5686 29.0242 17.5161 28.9945 17.4647C28.966 17.4144 28.9237 17.3813 28.8677 17.3653C28.725 17.3379 28.6234 17.2591 28.5617 17.1278C28.4886 16.993 28.4612 16.8503 28.4795 16.6984C28.5194 16.3204 28.8518 15.9778 29.1121 15.7026C29.3017 15.5027 28.9991 15.1978 28.8095 15.4L28.8129 15.3954Z" fill="#000F66"/>
<path d="M28.1802 19.1743C28.2578 19.2416 28.3378 19.3044 28.4223 19.3627C28.5068 19.4209 28.5936 19.4735 28.6838 19.5226C28.774 19.5705 28.8665 19.6139 28.9624 19.6516C29.0572 19.6904 29.1543 19.7224 29.2525 19.7498C29.3519 19.7772 29.4512 19.7978 29.5529 19.8138C29.6545 19.8298 29.7561 19.84 29.8578 19.8446C29.9605 19.848 30.0633 19.8469 30.165 19.84C30.2677 19.832 30.3682 19.8195 30.4699 19.8001C30.5704 19.7818 30.6697 19.7578 30.7668 19.7281C30.865 19.6973 30.9609 19.6619 31.0557 19.6219C31.1494 19.5808 31.2407 19.5351 31.3298 19.4837C31.4177 19.4323 31.5034 19.3764 31.5856 19.3159C31.669 19.2553 31.7478 19.1902 31.822 19.1206C31.8974 19.0509 31.9682 18.9767 32.0355 18.899C32.1018 18.8214 32.1646 18.7403 32.2217 18.6558C32.2799 18.5713 32.3325 18.4834 32.3804 18.3931C32.5106 18.1499 32.1406 17.9329 32.0104 18.1773C31.8505 18.4776 31.6358 18.7323 31.3663 18.9401C31.0968 19.1468 30.7965 19.2896 30.4653 19.3673C30.1147 19.4403 29.7664 19.4335 29.4204 19.3467C29.0744 19.2588 28.7637 19.1 28.4897 18.8705C28.2807 18.6935 27.9701 19.0007 28.187 19.1743H28.1802Z" fill="#000F66"/>
<path d="M31.7754 17.5971C31.7446 17.7844 31.7697 17.9648 31.8508 18.1373C31.917 18.2789 32.0118 18.3988 32.134 18.4959C32.2642 18.6101 32.415 18.6843 32.5851 18.7174C32.7541 18.7505 32.922 18.7391 33.0853 18.6832C33.1413 18.666 33.1847 18.6329 33.2155 18.5838C33.2452 18.5324 33.252 18.4765 33.236 18.4194C33.2201 18.3634 33.1869 18.3211 33.1367 18.2915C33.0864 18.2629 33.0328 18.2549 32.9757 18.2698C32.9471 18.2812 32.9174 18.2915 32.8877 18.2994C32.8695 18.3006 32.8523 18.304 32.8352 18.3097H32.8672H32.8409C32.8101 18.312 32.7804 18.312 32.7496 18.3097C32.7416 18.3097 32.6856 18.3017 32.7256 18.3097C32.7644 18.3177 32.7096 18.3097 32.7016 18.3097C32.6719 18.3052 32.6422 18.2972 32.6137 18.2869L32.576 18.2732L32.5897 18.28L32.5646 18.2686C32.5394 18.2549 32.5132 18.2423 32.488 18.2264L32.4492 18.2001C32.4492 18.2001 32.3967 18.1636 32.4275 18.1864C32.4572 18.2081 32.4127 18.1727 32.4081 18.1693L32.3773 18.1419C32.3544 18.1202 32.3339 18.0962 32.3122 18.0733L32.2962 18.0528L32.3053 18.0642C32.2985 18.0528 32.2905 18.0414 32.2825 18.0311C32.2654 18.006 32.2505 17.9785 32.2368 17.9511L32.2254 17.926L32.2368 17.9534C32.2334 17.9363 32.2277 17.9192 32.2185 17.9043C32.2094 17.8758 32.2037 17.8449 32.1968 17.8152C32.19 17.7856 32.1968 17.8678 32.1968 17.8152C32.1968 17.797 32.1968 17.7798 32.1968 17.7616C32.1968 17.7444 32.1968 17.7364 32.1968 17.7227C32.1968 17.7102 32.206 17.6451 32.1968 17.7125C32.2105 17.6542 32.2037 17.5994 32.1751 17.548C32.1443 17.4966 32.1009 17.4647 32.0449 17.4487C31.9878 17.435 31.9353 17.4418 31.8851 17.4715C31.8337 17.5001 31.8006 17.5423 31.7846 17.5983L31.7754 17.5971Z" fill="#000F66"/>
<path d="M27.3529 12.1339H27.394C27.3426 12.127 27.4271 12.1339 27.394 12.1339L27.4694 12.1487C27.5219 12.159 27.5733 12.1727 27.6235 12.1898L27.7103 12.2298C27.6898 12.2184 27.748 12.2435 27.7103 12.2298L27.748 12.2469C27.796 12.2698 27.8428 12.2961 27.8885 12.3246C27.909 12.3372 27.9319 12.3497 27.9524 12.3657L27.9855 12.3897C27.9935 12.3897 28.0255 12.4217 27.9855 12.3897C28.0267 12.424 28.0666 12.4582 28.1043 12.4959C28.142 12.5336 28.1774 12.5736 28.2117 12.6147C28.1991 12.5964 28.2368 12.6455 28.2117 12.6147L28.2356 12.6489C28.2516 12.6718 28.2653 12.6958 28.2813 12.7197C28.311 12.7711 28.3544 12.8042 28.4115 12.8191C28.4686 12.8339 28.5234 12.8259 28.5737 12.7962C28.6251 12.7666 28.6582 12.7232 28.673 12.6661C28.6879 12.609 28.681 12.5553 28.6513 12.5039C28.5097 12.2755 28.3247 12.0905 28.0952 11.95C27.8668 11.8096 27.6178 11.7285 27.3495 11.7068C27.2912 11.7068 27.241 11.7273 27.1987 11.7696C27.1576 11.8107 27.1359 11.861 27.1348 11.9192C27.137 11.9786 27.1587 12.0277 27.1999 12.0699C27.241 12.1111 27.2912 12.1327 27.3495 12.1339H27.3529Z" fill="#000F66"/>
<path d="M32.0474 13.4471C32.5167 13.1902 33.0146 13.1034 33.5434 13.1868C33.5993 13.1993 33.653 13.1913 33.7033 13.1628C33.7524 13.1342 33.7866 13.092 33.8038 13.0372C33.8175 12.9801 33.8095 12.9275 33.7809 12.8761C33.7512 12.8259 33.709 12.7928 33.653 12.7768C33.3413 12.7243 33.0283 12.7231 32.7166 12.7756C32.4048 12.827 32.109 12.9275 31.8315 13.0783C31.5894 13.2085 31.8053 13.5808 32.0485 13.4483L32.0474 13.4471Z" fill="#000F66"/>
<path d="M18.0954 12.4216C17.6889 13.7383 17.8522 15.3063 18.7737 16.3752C19.8004 17.5674 21.5865 17.7479 22.9717 17.1369C24.2873 16.5545 25.2717 15.2686 25.3139 13.8103C25.3676 12.4296 24.6105 11.0581 23.3508 10.4551C22.0901 9.85099 20.2389 9.7859 19.2648 10.9416C19.0889 11.1506 19.395 11.4612 19.5686 11.2442C20.3348 10.3341 21.7269 10.3249 22.7719 10.6801C23.0551 10.7771 23.32 10.913 23.5655 11.0855C23.8099 11.2591 24.0258 11.4635 24.213 11.6999C24.3992 11.9351 24.5488 12.1921 24.6607 12.4707C24.7738 12.7482 24.8446 13.0371 24.8731 13.3363C25.0113 14.6371 24.3193 15.8567 23.2138 16.5271C22.0672 17.2225 20.4502 17.2888 19.3904 16.3843C18.3044 15.457 18.1045 13.84 18.5099 12.5347C18.591 12.2743 18.1765 12.1578 18.0954 12.4216Z" fill="#000F66"/>
<path d="M24.6957 9.09966C24.1932 8.72051 23.6371 8.45215 23.0273 8.29569C22.5077 8.17693 21.9823 8.15295 21.4547 8.22375C20.5594 8.31853 19.7395 8.61659 18.9938 9.12021C18.0973 9.73574 17.4007 10.5911 16.8411 11.5127C16.1982 12.569 16.0303 13.8435 16.2221 15.054C16.3946 16.1526 16.8719 17.2489 17.677 18.0277C18.4079 18.7301 19.3683 19.1446 20.355 19.3285C21.4605 19.526 22.6276 19.5089 23.6714 19.0578C24.1967 18.8249 24.6557 18.4982 25.0475 18.0768C25.4346 17.684 25.7818 17.2569 26.0878 16.7978C26.4201 16.2554 26.6588 15.6741 26.8038 15.0551C26.9489 14.4362 26.9945 13.8104 26.9386 13.1766C26.8906 12.5211 26.7307 11.893 26.4612 11.2946C26.1917 10.695 25.8274 10.1594 25.3684 9.68892C25.1582 9.47537 24.9321 9.27895 24.6923 9.09966C24.4707 8.93407 24.2583 9.30636 24.4753 9.46966C24.9515 9.82825 25.3546 10.2565 25.6824 10.7544C26.0113 11.2523 26.2454 11.7913 26.3859 12.3715C26.5298 12.979 26.572 13.5934 26.5138 14.2146C26.4555 14.8359 26.2991 15.432 26.0444 16.0018C25.8331 16.4495 25.5648 16.8606 25.2404 17.2341C24.9104 17.6509 24.5313 18.0186 24.1042 18.3361C23.2283 18.9288 22.1616 19.0852 21.1259 19.0007C20.1769 18.9242 19.2256 18.6604 18.4399 18.1065C17.6336 17.5413 17.1118 16.6859 16.8251 15.7552C16.6492 15.2025 16.5659 14.6372 16.5784 14.0582C16.5899 13.4792 16.6949 12.9173 16.8936 12.3726C17.1163 11.845 17.4075 11.3585 17.7673 10.9131C18.0596 10.5214 18.3896 10.1663 18.7574 9.84652C20.0866 8.69311 22.116 8.20319 23.7422 9.01515C24.0014 9.14534 24.2469 9.29722 24.4787 9.46966C24.7014 9.63411 24.9161 9.26182 24.6957 9.09966Z" fill="#000F66"/>
<path d="M17.375 19.4975L18.0705 18.1065C18.0979 18.0563 18.1036 18.0026 18.0876 17.9467C18.0716 17.8907 18.0385 17.8484 17.9894 17.8199C17.9391 17.7902 17.8855 17.7833 17.8295 17.7971C17.7735 17.8108 17.7301 17.8416 17.6993 17.8907L17.005 19.2805C16.9741 19.3319 16.9673 19.3856 16.9821 19.4427C16.997 19.5009 17.0301 19.5443 17.0815 19.574C17.1329 19.6037 17.1866 19.6117 17.2437 19.5968C17.3019 19.582 17.3453 19.5489 17.375 19.4975Z" fill="#000F66"/>
<path d="M19.5024 20.3219L20.1031 19.1891C20.1374 19.1377 20.1476 19.0817 20.1339 19.0224C20.1202 18.9618 20.0871 18.9161 20.0334 18.8853C19.9798 18.8533 19.9238 18.8465 19.8644 18.8636C19.8062 18.8807 19.7616 18.9173 19.7342 18.9721L19.1324 20.105C19.0982 20.1564 19.0879 20.2123 19.1016 20.2728C19.1153 20.3322 19.1495 20.3779 19.2021 20.4099C19.2557 20.4407 19.3117 20.4476 19.3711 20.4304C19.4305 20.4133 19.4739 20.3768 19.5024 20.3219Z" fill="#000F66"/>
<path d="M27.8843 13.1913C27.9551 13.2084 28.0179 13.253 28.0705 13.3238C28.1241 13.3934 28.1641 13.4859 28.1904 13.6001C28.2166 13.7132 28.2281 13.8399 28.2235 13.9793C28.2201 14.1186 28.2007 14.2602 28.1664 14.4041C28.1321 14.548 28.0865 14.6839 28.0271 14.8095C27.9688 14.9362 27.9015 15.0447 27.8272 15.1338C27.7519 15.224 27.6753 15.288 27.5965 15.328C27.5177 15.3668 27.4424 15.3782 27.3704 15.3611C27.2985 15.3451 27.2368 15.3005 27.1831 15.2297C27.1306 15.1589 27.0906 15.0676 27.0644 14.9534C27.0381 14.8403 27.0267 14.7136 27.0313 14.5742C27.0347 14.4349 27.0541 14.2933 27.0884 14.1494C27.1226 14.0055 27.1683 13.8696 27.2277 13.744C27.2859 13.6172 27.3533 13.5088 27.4275 13.4197C27.5018 13.3295 27.5794 13.2644 27.6582 13.2255C27.737 13.1856 27.8124 13.1753 27.8843 13.1913Z" fill="#000F66"/>
<path d="M31.6799 15.5736C31.9928 15.4171 32.3239 15.3406 32.6745 15.3429C32.8401 15.3474 33.0046 15.3668 33.1679 15.4C33.3232 15.4388 33.4762 15.4297 33.627 15.3726C33.7092 15.3349 33.772 15.2755 33.8131 15.1944C33.8542 15.1145 33.8656 15.0288 33.8485 14.9409C33.8279 14.8484 33.7845 14.7696 33.7183 14.7022C33.6532 14.6337 33.5744 14.5892 33.4842 14.5652C33.3118 14.5263 33.1382 14.5184 32.9635 14.5435C32.783 14.5583 32.606 14.5914 32.4313 14.6417C32.0442 14.7547 31.697 14.9443 31.3909 15.207C31.3487 15.2492 31.3281 15.2995 31.3281 15.3589C31.3281 15.4182 31.3487 15.4685 31.3909 15.5107C31.4332 15.5507 31.4834 15.5713 31.5417 15.5713C31.6011 15.5713 31.6513 15.5507 31.6936 15.5107C31.9699 15.2778 32.284 15.119 32.6346 15.0311C32.7944 14.9911 32.9577 14.9683 33.1233 14.9626C33.209 14.9534 33.2935 14.958 33.3769 14.9786C33.4237 14.9946 33.4385 15.0528 33.4431 14.9923L33.4591 14.9809H33.4477C33.4248 14.9831 33.402 14.9831 33.3803 14.9809C33.3152 14.9774 33.2524 14.9683 33.1896 14.9534C33.0046 14.9158 32.8173 14.8986 32.6277 14.8998C32.22 14.9089 31.834 15.006 31.4697 15.1898C31.4183 15.2207 31.3852 15.2641 31.3704 15.3212C31.3555 15.3783 31.3624 15.4331 31.3932 15.4845C31.4229 15.5359 31.4663 15.569 31.5245 15.5838C31.5816 15.5987 31.6365 15.5907 31.6867 15.561L31.6799 15.5736Z" fill="#000F66"/>
<path d="M24.5055 9.07441C24.4016 8.8049 24.3377 8.5274 24.3125 8.23961C24.2886 7.95297 24.3046 7.66748 24.3605 7.38426C24.4165 7.10219 24.5113 6.83268 24.6437 6.57688C24.7773 6.31993 24.9429 6.0881 25.1416 5.87912C26.1831 4.80222 27.614 4.94497 27.7876 4.96895C28.2067 5.01806 28.6007 5.14482 28.9696 5.35152C29.1637 4.82164 29.4504 4.34885 29.8295 3.93202C30.0899 3.64424 30.9761 2.70553 32.431 2.57648C32.8592 2.54108 33.2806 2.57534 33.6974 2.67926C34.1143 2.78318 34.5037 2.94991 34.8645 3.18059C35.2711 3.44554 35.6194 3.77215 35.9106 4.16042C36.2007 4.54756 36.4165 4.97466 36.5558 5.43831C37.0526 5.12198 37.5928 4.92441 38.1775 4.8479C38.4812 4.80907 40.0549 4.60808 41.085 5.69183C41.5041 6.1532 41.7576 6.69222 41.8444 7.30889C41.9586 7.87189 41.9118 8.42119 41.7028 8.95564C41.5669 9.28796 41.375 9.58145 41.1261 9.83954C41.4778 10.0051 41.7896 10.2267 42.0602 10.5042C42.2818 10.7257 42.4645 10.9747 42.6095 11.2533C42.7546 11.5308 42.8539 11.8232 42.9087 12.1315C42.9624 12.4399 42.9693 12.7493 42.9293 13.06C42.8882 13.3706 42.8014 13.6675 42.6689 13.9519C42.4337 14.4715 42.0842 14.8974 41.6206 15.2309C41.5075 14.9134 41.3442 14.6233 41.1318 14.3618C40.9182 14.0992 40.6681 13.881 40.3815 13.704C39.9841 13.4505 39.5513 13.3272 39.0796 13.3329C37.997 13.3683 37.3335 14.2431 37.233 14.3812C36.8939 14.5388 36.5387 14.6016 36.1664 14.5708C35.8752 14.5377 35.6034 14.4509 35.3476 14.3082C35.0918 14.1665 34.8737 13.9804 34.6932 13.7509C33.9738 12.8019 34.4272 11.6485 34.4489 11.5948C34.2342 11.7809 33.9966 11.9317 33.7363 12.0459C33.4759 12.1601 33.2041 12.232 32.922 12.2617C32.6388 12.2925 32.3579 12.2788 32.0792 12.2229C31.8006 12.1669 31.5368 12.0699 31.2878 11.9328C30.1253 11.2819 29.9369 10.0063 29.9174 9.85096C29.6274 10.2153 29.2745 10.503 28.86 10.7143C27.5524 11.3778 26.2265 10.8902 25.9616 10.7863C25.7515 10.4928 25.5128 10.1833 25.2398 9.86353C24.9909 9.57118 24.7442 9.30966 24.5055 9.07441Z" fill="#000F66"/>
<path d="M36.6755 18.0527C36.9267 18.2035 37.1917 18.3257 37.4703 18.4182C37.9522 18.5769 38.4467 18.6443 38.9538 18.6169C37.9134 19.6572 36.8719 20.701 35.8316 21.7482C35.8236 21.2275 35.7596 20.4578 35.7539 19.9359C36.1102 19.5168 36.3774 19.0463 36.5556 18.5255C36.6367 18.2412 36.6538 18.2777 36.6755 18.0527Z" fill="#000F66"/>
<path d="M21.1874 16.1684C21.2833 16.1799 21.3792 16.1844 21.4763 16.1844C21.5722 16.1856 21.6681 16.1799 21.7641 16.1696C21.86 16.1582 21.9559 16.1422 22.0496 16.1216C22.1443 16.0999 22.2368 16.0737 22.3271 16.0417C22.4184 16.0097 22.5075 15.9732 22.5954 15.932C22.6822 15.8898 22.7667 15.8441 22.8478 15.7927C22.93 15.7413 23.0088 15.6854 23.0842 15.626C23.1596 15.5655 23.2327 15.5015 23.3012 15.4341C23.3686 15.3656 23.4336 15.2948 23.4942 15.2194C23.5547 15.1441 23.6107 15.0653 23.662 14.9842C23.7134 14.9031 23.7614 14.8186 23.8037 14.7318C23.8459 14.645 23.8824 14.5559 23.9144 14.4646C23.9475 14.3744 23.9738 14.2819 23.9966 14.1882C24.0183 14.0934 24.0343 13.9987 24.0458 13.9027C24.0572 13.8068 24.0629 13.7109 24.064 13.6149C24.064 13.5179 24.0595 13.4219 24.0492 13.326C24.0469 13.2678 24.0263 13.2175 23.9841 13.1764C23.943 13.1353 23.8927 13.1136 23.8345 13.1113C23.7762 13.1113 23.7249 13.133 23.6837 13.1741C23.6415 13.2164 23.6209 13.2666 23.6198 13.326C23.6403 13.4905 23.6426 13.6549 23.6255 13.8194C23.6084 13.9838 23.573 14.1448 23.5193 14.3013C23.4645 14.4577 23.3937 14.6062 23.3057 14.7467C23.2178 14.8871 23.115 15.015 22.9974 15.1315C22.8798 15.248 22.7507 15.3508 22.6103 15.4376C22.4698 15.5244 22.3202 15.594 22.1638 15.6477C22.0062 15.7002 21.8451 15.7345 21.6807 15.7505C21.5162 15.7665 21.3518 15.763 21.1874 15.7413C21.128 15.7425 21.0777 15.763 21.0355 15.8053C20.9944 15.8464 20.9727 15.8978 20.9727 15.956C20.9738 16.0154 20.9955 16.0657 21.0366 16.1068C21.0789 16.1479 21.1291 16.1696 21.1874 16.1707V16.1684Z" fill="white"/>
<path d="M5.51857 10.913C5.51857 10.6914 7.42798 10.9803 8.82006 9.82579C9.25516 9.44551 9.60233 8.99671 9.86042 8.47938C10.3012 7.66857 10.5319 6.80066 10.5559 5.87793C10.6004 6.79038 10.8471 7.64459 11.2948 8.44056C11.6488 9.12461 12.141 9.68875 12.7714 10.1318C13.1619 10.3945 13.5844 10.5921 14.0367 10.7257C14.4878 10.8582 14.9503 10.921 15.4208 10.913C14.4626 10.9986 13.5799 11.3024 12.7714 11.8231C12.2004 12.1726 11.7241 12.6214 11.3404 13.1695C10.5011 14.396 10.5193 15.7173 10.5593 16.2529C10.5468 15.2868 10.3161 14.3755 9.86498 13.5213C9.61603 13.0097 9.28257 12.5609 8.86574 12.1749C7.46909 10.9369 5.51286 11.1368 5.51857 10.913Z" fill="white"/>
<path d="M16.0336 10.7406C15.3107 10.8525 14.5867 10.9712 13.8787 11.1551C13.3602 11.2762 12.8692 11.468 12.4044 11.7295C11.5456 12.2503 11.1037 13.1068 10.8296 14.0455C10.6217 14.8266 10.463 15.6169 10.3545 16.4185H10.7679C10.6548 15.6979 10.5384 14.9728 10.3534 14.2647C10.2312 13.7463 10.0405 13.2552 9.7778 12.7916C9.25819 11.9328 8.40056 11.4897 7.46298 11.2145C6.68186 11.0066 5.89046 10.8491 5.08993 10.7406V11.1551C5.81166 11.0409 6.53569 10.9244 7.24372 10.7394C7.76218 10.6184 8.25324 10.4265 8.71689 10.165C9.57681 9.64425 10.0256 8.78661 10.2928 7.84904C10.5007 7.06792 10.6594 6.27652 10.7679 5.47598H10.3545C10.4664 6.19772 10.5852 6.92174 10.7679 7.62864C10.889 8.14938 11.0808 8.64158 11.3446 9.10637C11.8654 9.96515 12.7219 10.4082 13.6594 10.6835C14.4405 10.8913 15.2319 11.0489 16.0336 11.1585C16.302 11.1996 16.423 10.7862 16.1467 10.7451C15.4364 10.6344 14.7249 10.5167 14.0283 10.3386C13.5429 10.2301 13.0816 10.0565 12.6442 9.81897C11.8631 9.35533 11.4737 8.56278 11.2293 7.69487C11.0294 6.92974 10.8753 6.15547 10.7679 5.37206C10.7359 5.16765 10.3853 5.16765 10.3545 5.37206C10.2437 6.08238 10.1284 6.79384 9.9491 7.4916C9.84061 7.97694 9.66703 8.43831 9.42835 8.87455C8.9647 9.65453 8.1733 10.0451 7.30653 10.2906C6.54025 10.4893 5.76598 10.6435 4.98144 10.7508C4.77702 10.7828 4.77702 11.1323 4.98144 11.1654C5.69176 11.275 6.40436 11.3915 7.10097 11.5696C7.58632 11.6804 8.04768 11.8563 8.48392 12.0972C9.2639 12.5598 9.65446 13.3534 9.89999 14.2191C10.0998 14.9853 10.254 15.7596 10.3614 16.543C10.3922 16.7474 10.7416 16.7486 10.7748 16.543C10.8855 15.8327 11.0009 15.1212 11.1802 14.4235C11.2887 13.9381 11.4622 13.4779 11.7009 13.0405C12.1646 12.2606 12.956 11.87 13.8227 11.6245C14.5879 11.4258 15.3633 11.2727 16.1467 11.1654C16.4185 11.1117 16.3043 10.6983 16.0336 10.7406Z" fill="#000F66"/>
<path d="M52.675 20.8883C52.675 21.0425 52.6602 21.1955 52.6293 21.3462C52.5997 21.497 52.5551 21.6443 52.4969 21.7859C52.4375 21.9286 52.3655 22.0645 52.2799 22.1924C52.1942 22.3204 52.096 22.4391 51.9875 22.5476C51.8791 22.6572 51.7603 22.7543 51.6324 22.84C51.5033 22.9256 51.3686 22.9976 51.2258 23.0569C51.0842 23.1152 50.9369 23.1597 50.7862 23.1905C50.6343 23.2202 50.4824 23.2351 50.3282 23.2351C50.1741 23.2351 50.021 23.2202 49.8703 23.1905C49.7196 23.1597 49.5722 23.1152 49.4295 23.0569C49.2879 22.9976 49.152 22.9256 49.0241 22.84C48.8962 22.7543 48.7774 22.6572 48.6689 22.5476C48.5593 22.4391 48.4622 22.3204 48.3766 22.1924C48.2909 22.0645 48.219 21.9286 48.1596 21.7859C48.1014 21.6443 48.0568 21.497 48.026 21.3462C47.9963 21.1955 47.9814 21.0425 47.9814 20.8883C47.9814 20.7341 47.9963 20.5811 48.026 20.4304C48.0568 20.2796 48.1014 20.1323 48.1596 19.9907C48.219 19.8479 48.2909 19.712 48.3766 19.5841C48.4622 19.4562 48.5593 19.3375 48.6689 19.229C48.7774 19.1194 48.8962 19.0223 49.0241 18.9366C49.152 18.851 49.2879 18.779 49.4295 18.7197C49.5722 18.6614 49.7196 18.6169 49.8703 18.586C50.021 18.5563 50.1741 18.5415 50.3282 18.5415C50.4824 18.5415 50.6343 18.5563 50.7862 18.586C50.9369 18.6169 51.0842 18.6614 51.2258 18.7197C51.3686 18.779 51.5033 18.851 51.6324 18.9366C51.7603 19.0223 51.8791 19.1194 51.9875 19.229C52.096 19.3375 52.1942 19.4562 52.2799 19.5841C52.3655 19.712 52.4375 19.8479 52.4969 19.9907C52.5551 20.1323 52.5997 20.2796 52.6293 20.4304C52.6602 20.5811 52.675 20.7341 52.675 20.8883Z" fill="white"/>
<path d="M52.4609 20.8883C52.4609 21.0345 52.446 21.1784 52.4163 21.3211C52.3866 21.4639 52.3432 21.6021 52.285 21.7357C52.2279 21.8693 52.1571 21.996 52.0726 22.1159C51.9892 22.2347 51.8944 22.3443 51.7871 22.4437C51.6809 22.5442 51.5655 22.6321 51.4422 22.7075C51.3177 22.784 51.1864 22.8468 51.0494 22.8959C50.9123 22.945 50.7719 22.9804 50.6268 22.9998C50.4829 23.0204 50.3379 23.0261 50.1917 23.017C50.0467 23.0078 49.9039 22.9839 49.7635 22.945C49.623 22.9062 49.4871 22.8537 49.3581 22.7874C49.2279 22.7212 49.1057 22.6424 48.9926 22.551C48.8784 22.4597 48.7757 22.358 48.6832 22.245C48.5906 22.1331 48.5096 22.012 48.4422 21.883C48.3737 21.7539 48.32 21.6192 48.28 21.4787C48.2389 21.3394 48.2138 21.1966 48.2024 21.0505C48.191 20.9054 48.1955 20.7604 48.2138 20.6165C48.2321 20.4715 48.2652 20.3299 48.3131 20.1928C48.3611 20.0547 48.4216 19.9233 48.497 19.7977C48.5712 19.6732 48.658 19.5567 48.7562 19.4494C48.8544 19.3409 48.9629 19.245 49.0817 19.1593C49.1993 19.0748 49.3249 19.0017 49.4586 18.9424C49.591 18.883 49.7292 18.8373 49.872 18.8065C50.0136 18.7756 50.1586 18.7585 50.3036 18.7574C50.4498 18.7551 50.5937 18.7688 50.7376 18.7962C50.9786 18.8453 51.2058 18.9332 51.4171 19.0611C51.6283 19.1879 51.8122 19.3466 51.9687 19.5373C52.1263 19.728 52.2462 19.9382 52.3307 20.17C52.4152 20.4018 52.4574 20.6416 52.4597 20.8883C52.4597 21.1635 52.8914 21.1658 52.8891 20.8883C52.8891 20.7124 52.8708 20.54 52.8354 20.3676C52.8 20.1963 52.7475 20.0307 52.6778 19.8697C52.6082 19.7086 52.5225 19.5567 52.422 19.4129C52.3204 19.2701 52.2062 19.1388 52.0783 19.0189C51.9504 18.899 51.8111 18.7928 51.6615 18.7014C51.5119 18.61 51.3554 18.5358 51.1898 18.4764C51.0254 18.417 50.8552 18.3759 50.6816 18.3519C50.5081 18.3268 50.3345 18.3211 50.1597 18.3325C49.985 18.344 49.8126 18.3725 49.6436 18.4193C49.4745 18.4661 49.3124 18.5301 49.1559 18.61C49.0006 18.69 48.8544 18.7848 48.7186 18.8955C48.5815 19.0052 48.4582 19.1285 48.3463 19.2633C48.2355 19.3992 48.1396 19.5442 48.0585 19.6995C47.9763 19.8548 47.9123 20.017 47.8643 20.186C47.8164 20.3539 47.7855 20.5263 47.773 20.701C47.7593 20.8757 47.765 21.0493 47.7878 21.2229C47.8107 21.3976 47.8506 21.5667 47.9089 21.7322C47.966 21.8978 48.0402 22.0554 48.1304 22.2062C48.2206 22.3558 48.3257 22.4962 48.4445 22.6241C48.5632 22.7532 48.6934 22.8685 48.8362 22.9713C48.9789 23.0729 49.1297 23.1597 49.2907 23.2305C49.4506 23.3013 49.6162 23.355 49.7875 23.3927C49.9588 23.4292 50.1323 23.4487 50.3071 23.4498C50.4829 23.4509 50.6565 23.4349 50.8278 23.4007C50.9717 23.3699 51.111 23.3276 51.2481 23.2739C51.384 23.2191 51.5141 23.154 51.6398 23.0786C51.7654 23.0021 51.883 22.9153 51.9938 22.8194C52.1046 22.7235 52.2062 22.6184 52.2987 22.5054C52.3923 22.3923 52.4746 22.2724 52.5476 22.1445C52.6196 22.0177 52.6813 21.8853 52.7315 21.7471C52.7818 21.6089 52.8206 21.4684 52.8468 21.3245C52.8731 21.1807 52.8868 21.0345 52.8891 20.8883C52.8925 20.6119 52.4631 20.6119 52.4609 20.8883Z" fill="#000F66"/>
<path d="M61.1259 25.5533L56.044 30.7277C55.9846 30.7882 55.9344 30.8556 55.8921 30.9298C55.851 31.0029 55.8191 31.0817 55.7974 31.1639C55.7768 31.2462 55.7665 31.3295 55.7677 31.4152C55.7677 31.4997 55.7802 31.583 55.8019 31.6653C55.8248 31.7475 55.8579 31.8251 55.9013 31.8982C55.9447 31.9713 55.9961 32.0376 56.0566 32.0969C56.1171 32.1575 56.1845 32.2077 56.2587 32.25C56.3329 32.2911 56.4106 32.3231 56.4928 32.3447L63.5184 34.1582C63.6006 34.1788 63.6839 34.1891 63.7685 34.1879C63.8541 34.1868 63.9363 34.1742 64.0185 34.1514C64.0996 34.1285 64.1773 34.0954 64.2504 34.052C64.3235 34.0086 64.3897 33.9572 64.4491 33.8967C64.5073 33.8362 64.5587 33.7688 64.5998 33.6946C64.6421 33.6215 64.6729 33.5427 64.6935 33.4605C64.7152 33.3794 64.7254 33.296 64.7243 33.2104C64.7232 33.1259 64.7117 33.0425 64.6889 32.9614L62.7498 25.9724C62.727 25.8902 62.6938 25.8137 62.6504 25.7406C62.607 25.6675 62.5557 25.6013 62.4951 25.5419C62.4335 25.4825 62.3661 25.4311 62.293 25.39C62.2188 25.3478 62.1411 25.3169 62.0589 25.2952C61.9767 25.2735 61.8922 25.2644 61.8077 25.2644C61.7231 25.2655 61.6398 25.277 61.5576 25.2998C61.4765 25.3226 61.3988 25.3546 61.3257 25.398C61.2515 25.4414 61.1853 25.4928 61.1259 25.5533Z" fill="#FAD745"/>
<path d="M60.9753 25.4014L59.5718 26.8323L57.0434 29.4018L56.1493 30.312C55.9403 30.5244 55.7233 30.7208 55.6182 31.0109C55.592 31.0885 55.5737 31.1685 55.5646 31.2496C55.5543 31.3306 55.5531 31.4129 55.56 31.4939C55.5668 31.5762 55.5817 31.6561 55.6057 31.7349C55.6285 31.8126 55.6593 31.8879 55.6982 31.961C55.737 32.033 55.7827 32.1003 55.8363 32.1631C55.8889 32.226 55.9471 32.2831 56.0111 32.3333C56.0762 32.3847 56.1447 32.4281 56.2178 32.4646C56.2909 32.5012 56.3674 32.5297 56.4462 32.5514C56.6746 32.6131 56.9041 32.669 57.1336 32.7284L60.378 33.5644L63.209 34.2952C63.587 34.3935 63.9513 34.454 64.3213 34.2564C64.8546 33.9709 65.0282 33.3691 64.8741 32.8129L64.182 30.3223L63.2456 26.9397L62.9852 26.0044C62.855 25.5282 62.5284 25.141 62.0191 25.0565C61.8284 25.0257 61.6411 25.0394 61.4584 25.0976C61.2745 25.157 61.1146 25.2541 60.9776 25.3911C60.78 25.583 61.0838 25.8868 61.2814 25.6938C61.3282 25.6469 61.3807 25.607 61.439 25.5739C61.4972 25.5419 61.5577 25.5168 61.6228 25.4996C61.6868 25.4825 61.753 25.4745 61.8192 25.4745C61.8855 25.4745 61.9517 25.4836 62.0157 25.5008C62.0796 25.519 62.1413 25.5442 62.1984 25.5773C62.2566 25.6115 62.308 25.6515 62.356 25.6983C62.4028 25.7452 62.4428 25.7977 62.4759 25.8559C62.509 25.913 62.5353 25.9747 62.5524 26.0386C62.6175 26.2636 62.6826 26.4886 62.7397 26.7136L63.5927 29.7878L64.3739 32.6131C64.4333 32.8312 64.536 33.0847 64.5029 33.312C64.4892 33.4056 64.4595 33.4936 64.4127 33.5758C64.3659 33.658 64.3053 33.73 64.2323 33.7893C64.1592 33.8499 64.0781 33.8944 63.9879 33.9241C63.8977 33.9549 63.8063 33.9675 63.7115 33.9629C63.627 33.9538 63.5448 33.9378 63.4637 33.9138L61.0838 33.304L57.7869 32.4521L56.7522 32.1917C56.4416 32.1118 56.1493 32.0056 56.0271 31.6721C55.8969 31.3021 56.0739 31.0097 56.3205 30.7608L57.0423 30.0265L59.4051 27.6203L61.1843 25.808L61.2779 25.7132C61.4721 25.5076 61.1694 25.2039 60.9753 25.4014Z" fill="#000F66"/>
</svg>
